<svg xmlns="http://www.w3.org/2000/svg" xmlns:xlink="http://www.w3.org/1999/xlink" width="500" zoomAndPan="magnify" viewBox="0 0 375 374.999991" height="500" preserveAspectRatio="xMidYMid meet" version="1.0"><defs><filter x="0%" y="0%" width="100%" height="100%" id="3f802fc02e"><feColorMatrix values="0 0 0 0 1 0 0 0 0 1 0 0 0 0 1 0 0 0 1 0" color-interpolation-filters="sRGB"/></filter><g/><mask id="f8712b5f51"><g filter="url(#3f802fc02e)"><rect x="-37.5" width="450" fill="#000000" y="-37.499999" height="449.999989" fill-opacity="0.4"/></g></mask><clipPath id="f0af4f60c9"><path d="M 0 0.0390625 L 375 0.0390625 L 375 323.078125 L 0 323.078125 Z M 0 0.0390625 " clip-rule="nonzero"/></clipPath><clipPath id="d1a1c1afce"><path d="M 0 0.0390625 L 247 0.0390625 L 247 315 L 0 315 Z M 0 0.0390625 " clip-rule="nonzero"/></clipPath><clipPath id="65ad7c5d78"><rect x="0" width="247" y="0" height="315"/></clipPath><clipPath id="e214549262"><path d="M 84 8 L 375 8 L 375 323.078125 L 84 323.078125 Z M 84 8 " clip-rule="nonzero"/></clipPath><clipPath id="0245cd0ee6"><rect x="0" width="291" y="0" height="316"/></clipPath><clipPath id="3d74d3a3c7"><rect x="0" width="375" y="0" height="324"/></clipPath><clipPath id="6eac35bf4d"><rect x="0" width="375" y="0" height="324"/></clipPath></defs><g mask="url(#f8712b5f51)"><g transform="matrix(1, 0, 0, 1, 0, 23)"><g clip-path="url(#6eac35bf4d)"><g clip-path="url(#f0af4f60c9)"><g transform="matrix(1, 0, 0, 1, 0, 0)"><g clip-path="url(#3d74d3a3c7)"><g clip-path="url(#d1a1c1afce)"><g transform="matrix(1, 0, 0, 1, 0, 0)"><g clip-path="url(#65ad7c5d78)"><g fill="#eed4b6" fill-opacity="1"><g transform="translate(8.282033, 239.448883)"><g><path d="M 209.386719 -183.726562 L 213.730469 -182.519531 L 211.25 -173.585938 L 212.621094 -182.753906 C 218.941406 -181.808594 223.902344 -180.257812 227.507812 -178.101562 C 229.976562 -176.625 231.917969 -174.828125 233.328125 -172.71875 C 235.011719 -170.203125 235.851562 -167.433594 235.851562 -164.414062 C 235.851562 -162.457031 235.464844 -160.609375 234.691406 -158.867188 C 233.925781 -157.148438 232.828125 -155.632812 231.394531 -154.320312 C 220.082031 -144.179688 205.1875 -133.335938 186.710938 -121.785156 C 158.84375 -104.429688 127.269531 -87.664062 91.984375 -71.484375 L 88.121094 -79.914062 L 92.714844 -87.964844 C 104.519531 -81.230469 120.371094 -70.167969 140.269531 -54.773438 C 153.042969 -45.332031 163.335938 -38.265625 171.148438 -33.566406 C 174.84375 -31.347656 177.890625 -29.714844 180.296875 -28.660156 C 181.296875 -28.222656 182.128906 -27.910156 182.792969 -27.722656 C 182.996094 -27.664062 183.15625 -27.628906 183.273438 -27.609375 C 183.226562 -27.617188 183.136719 -27.621094 183.003906 -27.621094 C 183.0625 -27.621094 183.109375 -27.621094 183.136719 -27.625 C 183.113281 -27.621094 183.082031 -27.613281 183.042969 -27.601562 C 182.898438 -27.554688 182.769531 -27.484375 182.65625 -27.394531 C 183.519531 -28.074219 184.21875 -28.601562 184.757812 -28.980469 C 185.167969 -29.269531 185.542969 -29.515625 185.882812 -29.71875 C 187.460938 -30.652344 189.117188 -31.121094 190.847656 -31.121094 C 193.984375 -31.121094 196.613281 -30.121094 198.742188 -28.117188 C 200.003906 -26.929688 200.925781 -25.511719 201.511719 -23.859375 C 201.953125 -22.617188 202.171875 -21.300781 202.171875 -19.917969 C 202.171875 -18.113281 201.59375 -15.832031 200.441406 -13.078125 C 199.679688 -11.257812 198.574219 -8.921875 197.125 -6.066406 C 193.902344 0.285156 190.910156 4.691406 188.152344 7.15625 C 184.503906 10.417969 179.445312 12.046875 172.984375 12.046875 C 167.195312 12.046875 160.15625 9.609375 151.867188 4.730469 C 144.726562 0.53125 136.972656 -4.710938 128.605469 -10.996094 C 120.472656 -17.105469 112.359375 -23.316406 104.269531 -29.628906 C 84.597656 -44.789062 71.605469 -53.660156 65.296875 -56.242188 L 68.808594 -64.824219 L 76.636719 -59.859375 C 52.019531 -21.015625 39.4375 -1.046875 38.894531 0.0429688 C 37.582031 2.664062 35.832031 4.828125 33.636719 6.535156 C 32.800781 7.183594 32.042969 7.710938 31.371094 8.117188 C 29.550781 9.207031 27.707031 9.753906 25.832031 9.753906 L 25.832031 0.484375 L 27.113281 9.664062 L 21.023438 10.515625 L 15.886719 10.222656 L 16.417969 0.964844 L 16.417969 10.238281 C 16.539062 10.238281 16.734375 10.207031 17.003906 10.144531 C 17.894531 9.945312 18.746094 9.539062 19.566406 8.925781 C 18.167969 9.972656 16.640625 10.734375 14.980469 11.207031 C 15.792969 10.976562 16.527344 10.5625 17.1875 9.96875 C 15.023438 11.917969 12.332031 12.890625 9.113281 12.890625 C 5.914062 12.890625 2.6875 11.445312 -0.558594 8.546875 C -4.113281 5.378906 -5.890625 1.925781 -5.890625 -1.8125 C -5.890625 -3.332031 -5.574219 -5.003906 -4.945312 -6.828125 C -4.535156 -8.015625 -3.957031 -9.378906 -3.214844 -10.914062 C -1.859375 -13.722656 13.183594 -36.515625 41.917969 -79.289062 L 49.613281 -74.117188 L 49.613281 -64.847656 L 47.320312 -64.847656 C 43.050781 -64.847656 39.550781 -65.589844 36.820312 -67.078125 C 34.691406 -68.238281 33.03125 -69.796875 31.828125 -71.757812 C 30.582031 -73.792969 29.960938 -76.050781 29.960938 -78.523438 C 29.960938 -83.867188 32.121094 -88.894531 36.445312 -93.605469 C 40.980469 -98.542969 45.972656 -101.011719 51.425781 -101.011719 C 54.609375 -101.011719 58.074219 -100.738281 61.820312 -100.191406 L 60.476562 -91.019531 L 52.800781 -96.21875 C 67.96875 -118.605469 79.636719 -136.167969 87.800781 -148.898438 L 95.605469 -143.890625 L 101.953125 -137.136719 C 90.835938 -126.6875 79.867188 -121.460938 69.046875 -121.460938 C 65.746094 -121.460938 62.707031 -122.066406 59.9375 -123.277344 C 57.019531 -124.550781 54.511719 -126.4375 52.414062 -128.933594 C 48.632812 -133.433594 46.742188 -138.582031 46.742188 -144.375 C 46.742188 -150.089844 48.328125 -154.921875 51.5 -158.871094 C 54.117188 -162.132812 56.84375 -164.503906 59.675781 -165.984375 C 60.851562 -166.601562 61.902344 -167.085938 62.832031 -167.4375 C 64.476562 -168.0625 66.023438 -168.371094 67.480469 -168.371094 C 70.359375 -168.371094 72.789062 -167.386719 74.757812 -165.414062 C 76.730469 -163.445312 77.714844 -161.015625 77.714844 -158.136719 L 77.714844 -156.632812 L 76.273438 -152.304688 L 67.480469 -155.238281 L 76.75 -155.238281 C 76.75 -156.394531 76.515625 -157.503906 76.050781 -158.566406 C 75.621094 -159.542969 75.03125 -160.398438 74.28125 -161.132812 C 73.464844 -161.929688 72.585938 -162.480469 71.648438 -162.785156 C 71.503906 -162.832031 71.382812 -162.867188 71.285156 -162.886719 C 71.296875 -162.882812 71.335938 -162.878906 71.398438 -162.871094 C 71.714844 -162.835938 72.140625 -162.820312 72.667969 -162.820312 C 73.222656 -162.820312 74.15625 -163.082031 75.472656 -163.601562 C 77.382812 -164.355469 79.652344 -165.546875 82.289062 -167.171875 C 88.4375 -170.964844 94.46875 -174.757812 100.375 -178.550781 C 103.785156 -180.742188 106.84375 -182.414062 109.550781 -183.574219 C 112.949219 -185.027344 116.027344 -185.753906 118.78125 -185.753906 C 120.808594 -185.753906 122.574219 -185.621094 124.078125 -185.359375 C 126.492188 -184.9375 128.511719 -184.121094 130.148438 -182.914062 C 130.207031 -182.871094 130.253906 -182.835938 130.292969 -182.8125 L 130.265625 -182.824219 C 130.070312 -182.929688 129.824219 -183.019531 129.53125 -183.097656 C 131.625 -182.546875 133.441406 -181.628906 134.976562 -180.347656 C 136.390625 -179.171875 137.539062 -177.75 138.429688 -176.078125 C 138.230469 -176.457031 138.019531 -176.765625 137.804688 -177 C 137.785156 -177.023438 137.773438 -177.035156 137.773438 -177.035156 C 137.8125 -177 137.867188 -176.953125 137.933594 -176.898438 C 139.484375 -175.628906 140.667969 -174.105469 141.484375 -172.320312 C 142.269531 -170.609375 142.660156 -168.78125 142.660156 -166.828125 C 142.660156 -163.871094 141.878906 -161.125 140.320312 -158.589844 L 140.238281 -158.457031 L 140.15625 -158.332031 C 129.96875 -142.929688 117.449219 -123.507812 102.59375 -100.058594 L 94.761719 -105.019531 L 90.480469 -113.246094 C 110.210938 -123.507812 132.800781 -136.679688 158.253906 -152.753906 C 170.988281 -160.796875 180.773438 -167.175781 187.613281 -171.882812 C 190.933594 -174.167969 193.519531 -176.03125 195.371094 -177.476562 C 196.191406 -178.117188 196.832031 -178.644531 197.292969 -179.0625 C 197.441406 -179.195312 197.550781 -179.300781 197.621094 -179.371094 C 197.550781 -179.296875 197.453125 -179.179688 197.335938 -179.015625 L 204.851562 -173.585938 L 196.902344 -178.355469 C 197.953125 -180.109375 199.328125 -181.484375 201.027344 -182.484375 C 202.820312 -183.539062 204.777344 -184.066406 206.902344 -184.066406 L 208.167969 -184.066406 Z M 204.421875 -165.859375 L 206.902344 -174.792969 L 206.902344 -165.523438 C 208.144531 -165.523438 209.320312 -165.847656 210.425781 -166.5 C 211.441406 -167.097656 212.234375 -167.871094 212.800781 -168.816406 L 212.597656 -168.480469 L 212.367188 -168.160156 C 211.328125 -166.71875 209.464844 -164.953125 206.773438 -162.855469 C 204.628906 -161.183594 201.75 -159.101562 198.128906 -156.609375 C 191.085938 -151.761719 181.097656 -145.253906 168.15625 -137.078125 C 142.265625 -120.726562 119.226562 -107.296875 99.039062 -96.796875 L 68.515625 -80.917969 L 86.929688 -109.984375 C 101.851562 -133.535156 114.4375 -153.058594 124.691406 -168.5625 L 132.421875 -163.445312 L 124.527344 -168.304688 C 124.253906 -167.863281 124.117188 -167.367188 124.117188 -166.828125 C 124.117188 -166.082031 124.289062 -165.335938 124.628906 -164.59375 C 125.003906 -163.773438 125.523438 -163.09375 126.191406 -162.546875 C 124.347656 -164.054688 122.972656 -165.65625 122.070312 -167.351562 C 122.316406 -166.890625 122.664062 -166.472656 123.109375 -166.101562 C 123.679688 -165.625 124.25 -165.3125 124.8125 -165.164062 C 122.902344 -165.667969 121.007812 -166.613281 119.125 -168.003906 C 119.632812 -167.628906 120.132812 -167.355469 120.636719 -167.175781 C 120.734375 -167.140625 120.820312 -167.113281 120.894531 -167.09375 L 120.878906 -167.097656 C 120.433594 -167.175781 119.734375 -167.214844 118.78125 -167.214844 C 118.828125 -167.214844 118.871094 -167.214844 118.90625 -167.21875 L 118.90625 -167.214844 C 118.824219 -167.203125 118.710938 -167.179688 118.574219 -167.144531 C 118.105469 -167.023438 117.527344 -166.820312 116.847656 -166.527344 C 115.085938 -165.773438 112.933594 -164.582031 110.390625 -162.949219 C 104.390625 -159.09375 98.265625 -155.242188 92.023438 -151.390625 C 88.460938 -149.195312 85.21875 -147.519531 82.296875 -146.363281 C 78.789062 -144.972656 75.578125 -144.277344 72.667969 -144.277344 C 69.957031 -144.277344 67.703125 -144.570312 65.90625 -145.15625 C 64.101562 -145.742188 62.574219 -146.648438 61.324219 -147.867188 C 60.359375 -148.8125 59.605469 -149.894531 59.070312 -151.117188 C 58.496094 -152.425781 58.207031 -153.800781 58.207031 -155.238281 L 58.207031 -156.742188 L 59.648438 -161.066406 L 68.445312 -158.136719 L 59.175781 -158.136719 C 59.175781 -157.292969 59.3125 -156.457031 59.589844 -155.625 C 60.011719 -154.363281 60.695312 -153.253906 61.648438 -152.304688 C 62.597656 -151.351562 63.707031 -150.667969 64.96875 -150.246094 C 65.800781 -149.96875 66.636719 -149.832031 67.480469 -149.832031 C 68.289062 -149.832031 68.933594 -149.921875 69.410156 -150.101562 C 69.171875 -150.011719 68.796875 -149.832031 68.28125 -149.5625 C 67.734375 -149.273438 66.957031 -148.507812 65.953125 -147.257812 C 65.507812 -146.699219 65.28125 -145.738281 65.28125 -144.375 C 65.28125 -143.085938 65.722656 -141.914062 66.609375 -140.863281 C 66.84375 -140.582031 67.09375 -140.386719 67.355469 -140.269531 C 67.761719 -140.09375 68.328125 -140.003906 69.046875 -140.003906 C 74.96875 -140.003906 81.707031 -143.550781 89.257812 -150.648438 L 103.410156 -138.886719 C 95.160156 -126.023438 83.40625 -108.335938 68.152344 -85.820312 L 64.890625 -81.003906 L 59.136719 -81.84375 C 56.28125 -82.261719 53.710938 -82.472656 51.425781 -82.472656 C 51.558594 -82.472656 51.679688 -82.488281 51.789062 -82.515625 C 51.808594 -82.523438 51.824219 -82.527344 51.832031 -82.53125 C 51.8125 -82.519531 51.78125 -82.507812 51.746094 -82.484375 C 51.300781 -82.246094 50.753906 -81.773438 50.105469 -81.066406 C 49.417969 -80.316406 48.9375 -79.648438 48.667969 -79.0625 C 48.558594 -78.824219 48.503906 -78.644531 48.503906 -78.523438 C 48.503906 -79.53125 48.21875 -80.5 47.644531 -81.4375 C 47.121094 -82.296875 46.46875 -82.9375 45.6875 -83.359375 C 45.527344 -83.449219 45.390625 -83.511719 45.273438 -83.550781 C 45.292969 -83.542969 45.347656 -83.53125 45.4375 -83.515625 C 45.902344 -83.429688 46.527344 -83.390625 47.320312 -83.390625 L 67.007812 -83.390625 L 57.308594 -68.949219 C 29.066406 -26.902344 14.453125 -4.867188 13.476562 -2.847656 C 13.050781 -1.96875 12.753906 -1.277344 12.582031 -0.777344 C 12.558594 -0.710938 12.542969 -0.660156 12.53125 -0.621094 C 12.53125 -0.628906 12.535156 -0.648438 12.542969 -0.679688 C 12.617188 -1.003906 12.652344 -1.382812 12.652344 -1.8125 C 12.652344 -3.15625 12.339844 -4.3125 11.714844 -5.273438 C 11.632812 -5.398438 11.566406 -5.488281 11.519531 -5.542969 C 11.574219 -5.484375 11.660156 -5.398438 11.785156 -5.289062 C 11.960938 -5.132812 12.109375 -5.007812 12.230469 -4.914062 C 12.257812 -4.894531 12.277344 -4.882812 12.289062 -4.875 C 12.265625 -4.890625 12.230469 -4.910156 12.191406 -4.933594 C 11.351562 -5.410156 10.328125 -5.648438 9.113281 -5.648438 C 8.65625 -5.648438 8.164062 -5.570312 7.628906 -5.417969 C 6.582031 -5.113281 5.632812 -4.578125 4.78125 -3.8125 C 6.246094 -5.132812 7.949219 -6.066406 9.886719 -6.621094 C 9.351562 -6.46875 8.871094 -6.230469 8.441406 -5.90625 C 10.570312 -7.507812 13.230469 -8.304688 16.417969 -8.304688 L 16.683594 -8.304688 L 21.171875 -8.046875 L 20.640625 1.207031 L 19.359375 -7.976562 L 25.1875 -8.789062 L 25.832031 -8.789062 C 24.691406 -8.789062 23.617188 -8.582031 22.617188 -8.167969 C 22.316406 -8.046875 22.054688 -7.917969 21.832031 -7.785156 C 21.863281 -7.804688 22.003906 -7.910156 22.253906 -8.101562 C 22.222656 -8.078125 22.199219 -8.054688 22.183594 -8.039062 C 22.21875 -8.082031 22.257812 -8.152344 22.308594 -8.25 C 23.132812 -9.898438 36.023438 -30.410156 60.976562 -69.785156 L 65.132812 -76.34375 L 72.316406 -73.402344 C 80.171875 -70.191406 94.621094 -60.472656 115.671875 -44.25 C 123.675781 -38.007812 131.699219 -31.863281 139.742188 -25.820312 C 147.550781 -19.953125 154.726562 -15.097656 161.265625 -11.25 C 164.207031 -9.519531 166.785156 -8.25 169 -7.433594 C 170.703125 -6.808594 172.03125 -6.496094 172.984375 -6.496094 C 174.179688 -6.496094 175.117188 -6.589844 175.792969 -6.78125 C 175.9375 -6.820312 176.03125 -6.855469 176.082031 -6.878906 C 176.003906 -6.835938 175.90625 -6.769531 175.800781 -6.671875 C 176.136719 -6.976562 176.660156 -7.660156 177.359375 -8.730469 C 178.320312 -10.195312 179.398438 -12.105469 180.589844 -14.457031 C 181.835938 -16.910156 182.753906 -18.839844 183.339844 -20.238281 C 183.5625 -20.769531 183.714844 -21.167969 183.792969 -21.425781 C 183.683594 -21.074219 183.628906 -20.574219 183.628906 -19.917969 C 183.628906 -19.175781 183.765625 -18.425781 184.035156 -17.667969 C 184.449219 -16.496094 185.113281 -15.480469 186.035156 -14.617188 C 186.894531 -13.804688 187.875 -13.226562 188.972656 -12.882812 C 189.617188 -12.679688 190.246094 -12.578125 190.847656 -12.578125 C 192.5 -12.578125 193.992188 -12.972656 195.324219 -13.761719 C 195.402344 -13.808594 195.464844 -13.847656 195.515625 -13.878906 C 195.511719 -13.875 195.492188 -13.863281 195.464844 -13.84375 C 195.175781 -13.640625 194.71875 -13.292969 194.09375 -12.800781 C 190.925781 -10.320312 187.226562 -9.078125 183.003906 -9.078125 C 180.199219 -9.078125 176.824219 -9.941406 172.867188 -11.671875 C 169.730469 -13.042969 165.972656 -15.046875 161.597656 -17.675781 C 153.277344 -22.675781 142.386719 -30.152344 128.921875 -40.109375 C 109.710938 -54.972656 94.578125 -65.554688 83.527344 -71.859375 L 67.835938 -80.8125 L 84.257812 -88.339844 C 118.828125 -104.191406 149.699219 -120.582031 176.882812 -137.507812 C 194.457031 -148.492188 208.453125 -158.652344 218.867188 -167.988281 C 218.402344 -167.558594 218.027344 -167.03125 217.746094 -166.398438 C 217.457031 -165.742188 217.308594 -165.082031 217.308594 -164.414062 C 217.308594 -163.683594 217.511719 -163.019531 217.914062 -162.414062 C 218.027344 -162.246094 218.132812 -162.117188 218.230469 -162.027344 C 218.195312 -162.0625 218.113281 -162.113281 217.988281 -162.191406 C 216.480469 -163.09375 213.777344 -163.835938 209.878906 -164.417969 L 209.316406 -164.503906 Z M 204.421875 -165.859375 "/></g></g></g><g fill="#000000" fill-opacity="1"><g transform="translate(8.282033, 239.448883)"><g><path d="M 206.90625 -174.796875 L 211.25 -173.578125 C 221.46875 -172.054688 226.578125 -169 226.578125 -164.40625 C 226.578125 -163.125 226.09375 -162.039062 225.125 -161.15625 C 214.257812 -151.414062 199.816406 -140.910156 181.796875 -129.640625 C 154.273438 -112.503906 123.050781 -95.925781 88.125 -79.90625 C 99.550781 -73.394531 115.039062 -62.570312 134.59375 -47.4375 C 160.832031 -28.039062 176.96875 -18.34375 183 -18.34375 C 185.09375 -18.34375 186.882812 -18.925781 188.375 -20.09375 C 189.863281 -21.257812 190.6875 -21.84375 190.84375 -21.84375 C 192.207031 -21.84375 192.890625 -21.203125 192.890625 -19.921875 C 192.890625 -18.796875 191.539062 -15.578125 188.84375 -10.265625 C 186.15625 -4.953125 183.863281 -1.453125 181.96875 0.234375 C 180.082031 1.929688 177.085938 2.78125 172.984375 2.78125 C 168.878906 2.78125 163.40625 0.769531 156.5625 -3.25 C 149.71875 -7.28125 142.253906 -12.332031 134.171875 -18.40625 C 126.085938 -24.476562 118.019531 -30.65625 109.96875 -36.9375 C 89.601562 -52.632812 75.882812 -61.929688 68.8125 -64.828125 C 44.019531 -25.710938 31.28125 -5.46875 30.59375 -4.09375 C 29.914062 -2.726562 29.03125 -1.625 27.9375 -0.78125 C 26.851562 0.0625 26.148438 0.484375 25.828125 0.484375 L 20.640625 1.203125 L 16.421875 0.96875 C 15.296875 0.96875 14.488281 1.144531 14 1.5 C 13.519531 1.863281 13 2.125 12.4375 2.28125 C 11.875 2.445312 11.390625 2.710938 10.984375 3.078125 C 10.578125 3.441406 9.953125 3.625 9.109375 3.625 C 8.265625 3.625 7.097656 2.957031 5.609375 1.625 C 4.117188 0.300781 3.375 -0.84375 3.375 -1.8125 C 3.375 -2.78125 3.957031 -4.46875 5.125 -6.875 C 6.289062 -9.289062 21.117188 -31.707031 49.609375 -74.125 L 47.3125 -74.125 C 41.925781 -74.125 39.234375 -75.585938 39.234375 -78.515625 C 39.234375 -81.453125 40.578125 -84.390625 43.265625 -87.328125 C 45.960938 -90.265625 48.679688 -91.734375 51.421875 -91.734375 C 54.160156 -91.734375 57.179688 -91.492188 60.484375 -91.015625 C 75.691406 -113.472656 87.398438 -131.097656 95.609375 -143.890625 C 86.265625 -135.117188 77.410156 -130.734375 69.046875 -130.734375 C 65.023438 -130.734375 61.847656 -132.117188 59.515625 -134.890625 C 57.179688 -137.671875 56.015625 -140.832031 56.015625 -144.375 C 56.015625 -147.914062 56.914062 -150.8125 58.71875 -153.0625 C 60.53125 -155.3125 62.28125 -156.878906 63.96875 -157.765625 C 65.664062 -158.648438 66.832031 -159.09375 67.46875 -159.09375 C 68.113281 -159.09375 68.4375 -158.773438 68.4375 -158.140625 L 67.484375 -155.234375 C 67.484375 -154.109375 69.210938 -153.546875 72.671875 -153.546875 C 76.128906 -153.546875 80.957031 -155.457031 87.15625 -159.28125 C 93.351562 -163.101562 99.425781 -166.925781 105.375 -170.75 C 111.332031 -174.570312 115.800781 -176.484375 118.78125 -176.484375 C 121.757812 -176.484375 123.710938 -176.140625 124.640625 -175.453125 C 125.566406 -174.765625 126.410156 -174.320312 127.171875 -174.125 C 127.929688 -173.925781 128.550781 -173.625 129.03125 -173.21875 C 129.519531 -172.820312 129.925781 -172.320312 130.25 -171.71875 C 130.570312 -171.113281 131.175781 -170.445312 132.0625 -169.71875 C 132.945312 -169 133.390625 -168.035156 133.390625 -166.828125 C 133.390625 -165.617188 133.066406 -164.488281 132.421875 -163.4375 C 122.203125 -147.988281 109.648438 -128.515625 94.765625 -105.015625 C 114.722656 -115.398438 137.535156 -128.695312 163.203125 -144.90625 C 188.867188 -161.125 202.75 -170.679688 204.84375 -173.578125 C 205.332031 -174.390625 206.019531 -174.796875 206.90625 -174.796875 Z M 206.90625 -174.796875 "/></g></g></g></g></g></g><g clip-path="url(#e214549262)"><g transform="matrix(1, 0, 0, 1, 84, 8)"><g clip-path="url(#0245cd0ee6)"><g fill="#eed4b6" fill-opacity="1"><g transform="translate(33.544384, 239.935437)"><g><path d="M 201.25 -46.453125 L 202.414062 -40.921875 L 202.414062 -39.957031 C 202.414062 -35.949219 200.78125 -31.789062 197.515625 -27.476562 C 191.683594 -19.878906 182.589844 -11.34375 170.234375 -1.875 C 163.949219 2.9375 158.410156 6.59375 153.613281 9.085938 C 147.957031 12.027344 142.988281 13.496094 138.699219 13.496094 C 130.519531 13.496094 123.945312 10.917969 118.984375 5.765625 C 114.117188 0.710938 111.683594 -5.152344 111.683594 -11.828125 C 111.683594 -14.0625 112.164062 -16.644531 113.125 -19.582031 C 113.898438 -21.957031 115.027344 -24.703125 116.503906 -27.816406 C 119.261719 -33.625 123.339844 -40.9375 128.746094 -49.753906 C 144.566406 -75.308594 164.730469 -105.113281 189.238281 -139.167969 L 196.765625 -133.75 L 203.46875 -127.347656 L 162.425781 -84.375 C 113.003906 -32.605469 84.003906 -3.183594 75.433594 3.890625 C 72.347656 6.429688 68.390625 7.703125 63.554688 7.703125 C 58.910156 7.703125 54.324219 6.035156 49.792969 2.699219 C 47.355469 0.902344 45.457031 -1.117188 44.097656 -3.363281 C 42.480469 -6.035156 41.671875 -8.898438 41.671875 -11.949219 L 41.671875 -12.996094 L 41.710938 -13.433594 C 41.878906 -15.179688 42.636719 -17.714844 43.988281 -21.042969 C 45.0625 -23.6875 46.605469 -27.148438 48.617188 -31.433594 C 52.542969 -39.796875 58.335938 -51.453125 65.988281 -66.394531 C 81.277344 -96.25 94.121094 -120.023438 104.511719 -137.722656 L 112.503906 -133.027344 L 119.367188 -126.792969 C 104.347656 -110.261719 89.15625 -91.808594 73.796875 -71.433594 C 44.605469 -32.777344 23.296875 0.0546875 9.871094 27.0625 L 1.570312 22.9375 L 9.964844 26.871094 C 8.800781 29.347656 7.351562 31.339844 5.613281 32.84375 C 3.125 34.996094 0.289062 36.070312 -2.898438 36.070312 C -5.464844 36.070312 -8.820312 35.527344 -12.972656 34.4375 C -18.082031 33.046875 -22.089844 30.964844 -24.992188 28.191406 C -26.785156 26.480469 -28.152344 24.535156 -29.09375 22.351562 C -30.042969 20.15625 -30.515625 17.8125 -30.515625 15.332031 C -30.515625 13.289062 -29.878906 10.839844 -28.601562 7.980469 C -27.738281 6.042969 -26.492188 3.648438 -24.859375 0.789062 C -21.800781 -4.570312 -17.253906 -11.792969 -11.226562 -20.878906 C 0.691406 -38.835938 14.5 -58.4375 30.207031 -79.6875 C 45.949219 -100.992188 62.265625 -121.503906 79.148438 -141.226562 C 90.941406 -155.039062 100.695312 -165.453125 108.40625 -172.476562 C 112.523438 -176.222656 116.152344 -179.085938 119.292969 -181.066406 C 123.484375 -183.710938 127.296875 -185.03125 130.734375 -185.03125 C 133.347656 -185.03125 135.824219 -184.394531 138.167969 -183.125 C 138.410156 -182.996094 138.5625 -182.917969 138.613281 -182.894531 C 137.742188 -183.273438 136.722656 -183.460938 135.5625 -183.460938 C 134.222656 -183.460938 132.960938 -183.164062 131.777344 -182.574219 C 131 -182.183594 130.320312 -181.695312 129.730469 -181.109375 L 136.285156 -174.550781 L 129.089844 -180.398438 C 131.992188 -183.96875 136.460938 -185.753906 142.503906 -185.753906 C 146.820312 -185.753906 151.015625 -184.917969 155.082031 -183.25 C 157.589844 -182.21875 159.621094 -180.976562 161.179688 -179.527344 C 162.351562 -178.433594 163.277344 -177.21875 163.957031 -175.878906 C 164.808594 -174.199219 165.234375 -172.429688 165.234375 -170.570312 C 165.234375 -169.3125 164.96875 -167.988281 164.441406 -166.597656 C 164.234375 -166.058594 163.960938 -165.417969 163.613281 -164.675781 C 163.050781 -163.460938 162.230469 -161.832031 161.15625 -159.78125 C 159.105469 -155.863281 156.050781 -150.265625 151.984375 -142.992188 C 125.066406 -95.261719 107.007812 -62.511719 97.800781 -44.746094 L 89.570312 -49.011719 L 82.425781 -54.917969 C 91.390625 -65.757812 104.164062 -80.097656 120.742188 -97.933594 C 137.308594 -115.75 154.695312 -133.527344 172.914062 -151.257812 C 184.910156 -162.886719 194.535156 -171.640625 201.785156 -177.527344 C 205.625 -180.640625 208.886719 -183.019531 211.570312 -184.664062 C 215.390625 -187 218.742188 -188.167969 221.632812 -188.167969 C 224.347656 -188.167969 227.53125 -187.648438 231.179688 -186.605469 C 235.351562 -185.394531 239.289062 -184.789062 242.996094 -184.789062 L 243.859375 -184.789062 L 244.707031 -184.628906 C 247.722656 -184.066406 250.34375 -182.765625 252.566406 -180.734375 C 253.8125 -179.597656 254.800781 -178.347656 255.535156 -176.980469 C 256.496094 -175.179688 256.976562 -173.285156 256.976562 -171.292969 C 256.976562 -168.121094 255.992188 -165.386719 254.019531 -163.085938 L 246.980469 -169.121094 L 254.390625 -163.546875 C 228.328125 -128.90625 206.371094 -98.371094 188.511719 -71.945312 C 170.863281 -45.832031 160.058594 -28.351562 156.09375 -19.503906 L 147.632812 -23.296875 L 145.730469 -32.371094 C 146.910156 -32.617188 148.394531 -33.25 150.191406 -34.261719 C 152.386719 -35.5 154.859375 -37.222656 157.617188 -39.433594 C 163.535156 -44.179688 170.511719 -50.976562 178.554688 -59.832031 L 185.417969 -53.597656 L 178 -59.160156 C 178.988281 -60.476562 179.796875 -61.453125 180.429688 -62.085938 C 180.445312 -62.097656 180.457031 -62.109375 180.460938 -62.117188 C 180.449219 -62.101562 180.433594 -62.082031 180.414062 -62.058594 L 180.585938 -62.28125 L 180.765625 -62.5 C 182.394531 -64.414062 184.320312 -65.648438 186.546875 -66.203125 C 188.382812 -66.664062 190.203125 -66.613281 192 -66.050781 C 193.53125 -65.570312 194.886719 -64.765625 196.066406 -63.628906 C 197.324219 -62.421875 198.308594 -60.882812 199.023438 -59.015625 C 199.433594 -57.949219 199.777344 -56.710938 200.0625 -55.292969 L 200.105469 -55.078125 L 200.800781 -50.453125 C 200.933594 -49.523438 201.0625 -48.578125 201.1875 -47.613281 C 201.363281 -46.289062 201.449219 -45.265625 201.449219 -44.542969 L 192.175781 -44.542969 Z M 183.105469 -42.632812 L 182.90625 -43.578125 L 182.90625 -44.542969 C 182.90625 -44.425781 182.910156 -44.328125 182.914062 -44.25 C 182.914062 -44.269531 182.910156 -44.304688 182.902344 -44.359375 C 182.882812 -44.570312 182.851562 -44.855469 182.800781 -45.214844 C 182.6875 -46.105469 182.574219 -46.929688 182.464844 -47.6875 L 181.800781 -52.09375 L 190.96875 -53.476562 L 181.878906 -51.65625 C 181.800781 -52.054688 181.742188 -52.296875 181.707031 -52.390625 C 181.980469 -51.679688 182.480469 -50.96875 183.214844 -50.265625 C 184.136719 -49.378906 185.21875 -48.742188 186.46875 -48.351562 C 187.984375 -47.878906 189.511719 -47.832031 191.046875 -48.21875 C 192.667969 -48.621094 193.953125 -49.378906 194.894531 -50.488281 L 187.832031 -56.496094 L 195.246094 -50.933594 C 194.742188 -50.257812 194.175781 -49.605469 193.542969 -48.972656 L 193.546875 -48.957031 C 193.363281 -48.730469 193.125 -48.421875 192.832031 -48.035156 L 192.574219 -47.6875 L 192.28125 -47.363281 C 183.582031 -37.789062 175.894531 -30.324219 169.214844 -24.96875 C 161.765625 -18.992188 155.207031 -15.414062 149.535156 -14.222656 L 131.734375 -10.496094 L 139.171875 -27.089844 C 143.578125 -36.914062 154.902344 -55.328125 173.148438 -82.328125 C 191.183594 -109.015625 213.324219 -139.804688 239.574219 -174.695312 L 239.75 -174.929688 L 239.941406 -175.152344 C 238.9375 -173.980469 238.433594 -172.695312 238.433594 -171.292969 C 238.433594 -170.1875 238.683594 -169.167969 239.183594 -168.234375 C 239.453125 -167.730469 239.746094 -167.335938 240.066406 -167.042969 C 240.441406 -166.699219 240.847656 -166.488281 241.289062 -166.40625 L 242.996094 -175.519531 L 242.996094 -166.246094 C 237.53125 -166.246094 231.894531 -167.089844 226.085938 -168.777344 C 224.101562 -169.34375 222.617188 -169.628906 221.632812 -169.628906 C 222.097656 -169.628906 222.515625 -169.671875 222.886719 -169.765625 C 222.953125 -169.78125 223.003906 -169.796875 223.046875 -169.808594 C 223.039062 -169.808594 223.019531 -169.800781 222.984375 -169.785156 C 222.574219 -169.617188 221.996094 -169.304688 221.25 -168.847656 C 219.265625 -167.632812 216.671875 -165.726562 213.46875 -163.128906 C 206.640625 -157.585938 197.433594 -149.199219 185.847656 -137.972656 C 167.851562 -120.457031 150.675781 -102.902344 134.324219 -85.308594 C 117.988281 -67.738281 105.453125 -53.667969 96.714844 -43.101562 L 81.335938 -53.273438 C 90.644531 -71.238281 108.796875 -104.15625 135.796875 -152.035156 C 139.78125 -159.164062 142.757812 -164.613281 144.730469 -168.378906 C 145.671875 -170.171875 146.359375 -171.542969 146.800781 -172.496094 C 146.960938 -172.832031 147.0625 -173.0625 147.109375 -173.1875 C 146.832031 -172.457031 146.691406 -171.582031 146.691406 -170.570312 C 146.691406 -169.472656 146.933594 -168.449219 147.417969 -167.492188 C 147.730469 -166.875 148.105469 -166.363281 148.542969 -165.957031 C 148.636719 -165.867188 148.726562 -165.792969 148.808594 -165.734375 L 148.804688 -165.734375 C 148.625 -165.839844 148.367188 -165.960938 148.03125 -166.097656 C 146.222656 -166.839844 144.382812 -167.214844 142.503906 -167.214844 C 141.890625 -167.214844 141.515625 -167.191406 141.375 -167.148438 C 142.125 -167.378906 142.824219 -167.898438 143.480469 -168.707031 L 143.179688 -168.335938 L 142.839844 -167.996094 C 140.789062 -165.945312 138.363281 -164.917969 135.5625 -164.917969 C 134.160156 -164.917969 132.71875 -165.238281 131.242188 -165.878906 C 130.691406 -166.117188 130.054688 -166.433594 129.335938 -166.824219 C 129.746094 -166.601562 130.214844 -166.488281 130.734375 -166.488281 C 130.996094 -166.488281 131.222656 -166.507812 131.402344 -166.550781 L 131.414062 -166.550781 C 131.367188 -166.535156 131.308594 -166.515625 131.242188 -166.488281 C 130.710938 -166.28125 130.023438 -165.914062 129.179688 -165.382812 C 126.960938 -163.984375 124.199219 -161.777344 120.890625 -158.765625 C 113.753906 -152.265625 104.535156 -142.402344 93.234375 -129.171875 C 76.636719 -109.785156 60.597656 -89.617188 45.117188 -68.667969 C 29.597656 -47.667969 15.96875 -28.320312 4.222656 -10.625 C -1.578125 -1.886719 -5.902344 4.984375 -8.757812 9.984375 C -10.085938 12.308594 -11.054688 14.15625 -11.671875 15.535156 C -11.890625 16.027344 -12.039062 16.398438 -12.113281 16.644531 C -12.019531 16.34375 -11.976562 15.90625 -11.976562 15.332031 C -11.976562 15.261719 -12.007812 15.152344 -12.070312 15.007812 C -12.105469 14.921875 -12.144531 14.847656 -12.191406 14.785156 L -12.1875 14.78125 C -11.550781 15.390625 -10.246094 15.964844 -8.273438 16.503906 C -5.664062 17.1875 -3.871094 17.527344 -2.898438 17.527344 C -4.3125 17.527344 -5.519531 17.957031 -6.515625 18.820312 C -6.730469 19.003906 -6.886719 19.167969 -6.992188 19.320312 C -6.957031 19.269531 -6.902344 19.164062 -6.824219 19 L -6.78125 18.90625 L -6.734375 18.808594 C 7.203125 -9.230469 29.113281 -43.03125 58.988281 -82.597656 C 74.691406 -103.425781 90.242188 -122.3125 105.644531 -139.261719 L 120.5 -128.332031 C 110.289062 -110.941406 97.621094 -87.480469 82.492188 -57.941406 C 74.933594 -43.1875 69.238281 -31.726562 65.398438 -23.550781 C 63.527344 -19.566406 62.117188 -16.40625 61.167969 -14.070312 C 60.742188 -13.023438 60.429688 -12.183594 60.222656 -11.554688 C 60.15625 -11.347656 60.109375 -11.199219 60.085938 -11.101562 C 60.117188 -11.234375 60.148438 -11.425781 60.171875 -11.675781 L 50.941406 -12.554688 L 60.210938 -12.554688 L 60.210938 -11.949219 C 60.210938 -12.347656 60.128906 -12.683594 59.960938 -12.960938 C 60.046875 -12.816406 60.324219 -12.574219 60.78125 -12.234375 C 61.566406 -11.65625 62.261719 -11.25 62.871094 -11.015625 C 63.175781 -10.898438 63.402344 -10.839844 63.554688 -10.839844 C 64.007812 -10.839844 64.316406 -10.863281 64.488281 -10.914062 C 64.238281 -10.84375 63.953125 -10.675781 63.628906 -10.410156 C 71.636719 -17.015625 100.097656 -45.941406 149.015625 -97.179688 L 190.058594 -140.15625 L 204.289062 -128.335938 C 180.03125 -94.628906 160.117188 -65.203125 144.550781 -40.058594 C 139.492188 -31.8125 135.726562 -25.082031 133.253906 -19.867188 C 132.117188 -17.464844 131.28125 -15.453125 130.75 -13.824219 C 130.535156 -13.167969 130.382812 -12.613281 130.289062 -12.15625 C 130.257812 -12.007812 130.238281 -11.886719 130.226562 -11.789062 C 130.226562 -11.769531 130.226562 -11.757812 130.226562 -11.75 C 130.226562 -11.773438 130.226562 -11.796875 130.226562 -11.828125 C 130.226562 -10.136719 130.929688 -8.558594 132.339844 -7.09375 C 133.65625 -5.730469 135.777344 -5.046875 138.699219 -5.046875 C 139.132812 -5.046875 139.78125 -5.183594 140.644531 -5.457031 C 141.910156 -5.855469 143.378906 -6.492188 145.0625 -7.367188 C 148.898438 -9.359375 153.527344 -12.4375 158.953125 -16.59375 C 170.015625 -25.070312 177.941406 -32.429688 182.734375 -38.675781 C 183.300781 -39.421875 183.6875 -40.03125 183.898438 -40.511719 C 183.921875 -40.5625 183.9375 -40.601562 183.949219 -40.632812 C 183.945312 -40.628906 183.941406 -40.613281 183.933594 -40.585938 C 183.894531 -40.410156 183.871094 -40.199219 183.871094 -39.957031 L 193.140625 -39.957031 L 184.070312 -38.046875 Z M 183.105469 -42.632812 "/></g></g></g><g fill="#000000" fill-opacity="1"><g transform="translate(33.544384, 239.935437)"><g><path d="M 192.171875 -44.546875 L 193.140625 -39.953125 C 193.140625 -38.023438 192.132812 -35.734375 190.125 -33.078125 C 184.8125 -26.148438 176.300781 -18.203125 164.59375 -9.234375 C 152.882812 -0.265625 144.253906 4.21875 138.703125 4.21875 C 133.148438 4.21875 128.800781 2.59375 125.65625 -0.65625 C 122.519531 -3.914062 120.953125 -7.640625 120.953125 -11.828125 C 120.953125 -16.816406 126.179688 -27.84375 136.640625 -44.90625 C 152.335938 -70.25 172.378906 -99.863281 196.765625 -133.75 C 191.609375 -128.4375 177.925781 -114.113281 155.71875 -90.78125 C 106.550781 -39.269531 77.820312 -10.097656 69.53125 -3.265625 C 68.164062 -2.128906 66.171875 -1.5625 63.546875 -1.5625 C 60.929688 -1.5625 58.175781 -2.628906 55.28125 -4.765625 C 52.382812 -6.898438 50.9375 -9.296875 50.9375 -11.953125 L 50.9375 -12.546875 C 51.257812 -15.929688 59.023438 -32.46875 74.234375 -62.15625 C 89.441406 -91.851562 102.195312 -115.476562 112.5 -133.03125 C 97.289062 -116.289062 81.921875 -97.617188 66.390625 -77.015625 C 36.859375 -37.898438 15.25 -4.582031 1.5625 22.9375 C 0.363281 25.507812 -1.117188 26.796875 -2.890625 26.796875 C -4.660156 26.796875 -7.238281 26.351562 -10.625 25.46875 C -17.707031 23.539062 -21.25 20.160156 -21.25 15.328125 C -21.25 12.429688 -15.332031 2.070312 -3.5 -15.75 C 8.332031 -33.570312 22.050781 -53.046875 37.65625 -74.171875 C 53.269531 -95.296875 69.445312 -115.640625 86.1875 -135.203125 C 109.28125 -162.234375 124.128906 -175.75 130.734375 -175.75 C 131.773438 -175.75 132.78125 -175.488281 133.75 -174.96875 C 134.71875 -174.445312 135.320312 -174.1875 135.5625 -174.1875 C 135.800781 -174.1875 136.039062 -174.304688 136.28125 -174.546875 C 137.332031 -175.835938 139.40625 -176.484375 142.5 -176.484375 C 145.59375 -176.484375 148.609375 -175.878906 151.546875 -174.671875 C 154.484375 -173.460938 155.953125 -172.09375 155.953125 -170.5625 C 155.953125 -169.601562 151.929688 -161.921875 143.890625 -147.515625 C 116.929688 -99.710938 98.820312 -66.878906 89.5625 -49.015625 C 98.414062 -59.710938 111.070312 -73.910156 127.53125 -91.609375 C 143.988281 -109.316406 161.269531 -126.984375 179.375 -144.609375 C 202.957031 -167.460938 217.039062 -178.890625 221.625 -178.890625 C 223.476562 -178.890625 225.8125 -178.488281 228.625 -177.6875 C 233.613281 -176.238281 238.40625 -175.515625 243 -175.515625 C 244.28125 -175.273438 245.382812 -174.734375 246.3125 -173.890625 C 247.238281 -173.046875 247.703125 -172.179688 247.703125 -171.296875 C 247.703125 -170.410156 247.460938 -169.6875 246.984375 -169.125 C 220.828125 -134.351562 198.773438 -103.6875 180.828125 -77.125 C 162.878906 -50.570312 151.8125 -32.628906 147.625 -23.296875 C 156.082031 -25.066406 168.679688 -35.164062 185.421875 -53.59375 C 186.140625 -54.5625 186.660156 -55.207031 186.984375 -55.53125 C 187.304688 -55.851562 187.585938 -56.175781 187.828125 -56.5 C 189.191406 -58.101562 190.238281 -57.09375 190.96875 -53.46875 C 191.289062 -51.382812 191.507812 -49.914062 191.625 -49.0625 C 191.75 -48.21875 191.867188 -47.332031 191.984375 -46.40625 C 192.109375 -45.488281 192.171875 -44.867188 192.171875 -44.546875 Z M 192.171875 -44.546875 "/></g></g></g></g></g></g></g></g></g></g></g></g></svg>