<svg width="250" height="250" viewBox="0 0 250 250" fill="none" xmlns="http://www.w3.org/2000/svg">
<mask id="mask0_7_88" style="mask-type:luminance" maskUnits="userSpaceOnUse" x="35" y="39" width="198" height="171">
<path d="M232.667 39.3333H35.3333V210H232.667V39.3333Z" fill="white"/>
</mask>
<g mask="url(#mask0_7_88)">
<mask id="mask1_7_88" style="mask-type:luminance" maskUnits="userSpaceOnUse" x="35" y="67" width="129" height="106">
<path d="M35.3594 67.3333H163.333V172.667H35.3594V67.3333Z" fill="white"/>
</mask>
<g mask="url(#mask1_7_88)">
<path d="M148.963 68.925L151.252 69.5604L149.947 74.2635L150.669 69.4354C153.997 69.9328 156.611 70.7505 158.51 71.8859C159.809 72.6646 160.833 73.6099 161.575 74.7219C162.46 76.0474 162.903 77.5057 162.903 79.0969C162.903 80.1255 162.7 81.0995 162.291 82.0188C161.89 82.9224 161.312 83.7219 160.557 84.412C154.598 89.7531 146.755 95.4641 137.02 101.547C122.346 110.688 105.716 119.519 87.1323 128.04L85.0985 123.599L87.5177 119.36C93.7339 122.904 102.083 128.732 112.562 136.842C119.289 141.813 124.71 145.534 128.828 148.008C130.77 149.178 132.377 150.04 133.645 150.594C134.171 150.823 134.609 150.988 134.958 151.086C135.065 151.118 135.151 151.139 135.21 151.146C135.187 151.144 135.14 151.141 135.07 151.141C135.101 151.141 135.125 151.141 135.14 151.139C135.13 151.141 135.111 151.144 135.091 151.152C135.015 151.175 134.947 151.211 134.885 151.258C135.341 150.902 135.71 150.626 135.992 150.425C136.21 150.271 136.406 150.141 136.585 150.037C137.416 149.545 138.289 149.297 139.203 149.297C140.854 149.297 142.239 149.826 143.359 150.878C144.023 151.506 144.51 152.253 144.817 153.123C145.049 153.777 145.166 154.469 145.166 155.198C145.166 156.149 144.861 157.349 144.255 158.8C143.854 159.758 143.27 160.99 142.507 162.495C140.809 165.836 139.234 168.157 137.783 169.456C135.859 171.175 133.197 172.034 129.791 172.034C126.744 172.034 123.036 170.748 118.671 168.18C114.908 165.967 110.825 163.206 106.419 159.896C102.138 156.678 97.8641 153.407 93.6011 150.084C83.2417 142.099 76.4006 137.425 73.0776 136.066L74.9266 131.547L79.049 134.162C66.0828 154.62 59.4578 165.136 59.1714 165.709C58.4813 167.092 57.5568 168.23 56.4032 169.128C55.9604 169.472 55.5646 169.751 55.2104 169.961C54.2521 170.537 53.2782 170.826 52.2912 170.826V165.943L52.9683 170.779L49.7599 171.227L47.0542 171.071L47.3328 166.196V171.079C47.3979 171.079 47.5021 171.063 47.6427 171.032C48.1115 170.928 48.562 170.711 48.9917 170.389C48.2573 170.941 47.4526 171.342 46.5776 171.592C47.0047 171.469 47.3901 171.251 47.7391 170.938C46.5985 171.964 45.1818 172.477 43.4865 172.477C41.8016 172.477 40.1037 171.717 38.3927 170.191C36.5203 168.521 35.5854 166.701 35.5854 164.735C35.5854 163.933 35.7495 163.053 36.0828 162.092C36.299 161.467 36.6011 160.748 36.9917 159.938C37.7078 158.461 45.6323 146.456 60.7625 123.93L64.8172 126.652V131.534H63.6089C61.3589 131.534 59.5177 131.144 58.0776 130.36C56.9578 129.751 56.0828 128.928 55.45 127.896C54.7938 126.823 54.4657 125.636 54.4657 124.331C54.4657 121.516 55.6063 118.87 57.8823 116.389C60.2703 113.787 62.8979 112.488 65.7703 112.488C67.4474 112.488 69.2729 112.631 71.2469 112.92L70.5386 117.751L66.4969 115.014C74.4839 103.222 80.6297 93.9719 84.9292 87.2688L89.0386 89.9042L92.3823 93.4641C86.5282 98.9667 80.7495 101.717 75.0516 101.717C73.3146 101.717 71.7131 101.399 70.2547 100.761C68.7183 100.089 67.3979 99.0969 66.2938 97.7818C64.299 95.412 63.3042 92.701 63.3042 89.6516C63.3042 86.6385 64.1401 84.0943 65.812 82.0135C67.1896 80.2974 68.6245 79.05 70.1167 78.2688C70.7339 77.9432 71.2886 77.688 71.7782 77.5031C72.6453 77.175 73.4604 77.0109 74.2261 77.0109C75.7443 77.0109 77.0229 77.5292 78.0594 78.5682C79.0985 79.6073 79.6167 80.8859 79.6167 82.4016V83.1958L78.8589 85.4719L74.2261 83.9276H79.1089C79.1089 83.3208 78.9865 82.7349 78.7417 82.175C78.5151 81.662 78.2052 81.2115 77.8094 80.826C77.3797 80.4042 76.9162 80.1151 76.4214 79.9537C76.3459 79.9276 76.2834 79.912 76.2313 79.9016C76.2365 79.9016 76.2573 79.9042 76.2912 79.9094C76.4578 79.9276 76.6818 79.9354 76.9604 79.9354C77.2495 79.9354 77.7417 79.7974 78.437 79.524C79.4422 79.1255 80.6375 78.4979 82.0256 77.6438C85.2651 75.6438 88.4396 73.6464 91.5516 71.649C93.3485 70.4953 94.9604 69.6151 96.3849 69.0057C98.174 68.2401 99.7938 67.8573 101.247 67.8573C102.315 67.8573 103.244 67.925 104.036 68.0656C105.307 68.287 106.372 68.7167 107.231 69.3521C107.263 69.3755 107.289 69.3938 107.309 69.4068L107.294 69.399C107.192 69.3443 107.062 69.2974 106.908 69.2557C108.01 69.5474 108.966 70.0292 109.776 70.7037C110.52 71.3234 111.125 72.0734 111.596 72.9537C111.489 72.7531 111.38 72.5917 111.265 72.4667C111.255 72.4537 111.25 72.4484 111.247 72.4484C111.268 72.4667 111.296 72.4927 111.333 72.5214C112.148 73.188 112.773 73.9927 113.203 74.9328C113.617 75.8313 113.822 76.7974 113.822 77.826C113.822 79.3833 113.411 80.8287 112.588 82.1646L112.546 82.2323L112.502 82.3C107.138 90.4094 100.544 100.641 92.7183 112.99L88.5959 110.376L86.3407 106.045C96.7313 100.639 108.63 93.7037 122.036 85.2349C128.742 81.0005 133.895 77.6412 137.497 75.162C139.247 73.9589 140.609 72.9771 141.583 72.2167C142.015 71.8807 142.354 71.6021 142.596 71.3807C142.674 71.3104 142.731 71.2557 142.768 71.2167C142.731 71.2557 142.682 71.3208 142.619 71.4068L146.578 74.2635L142.39 71.7531C142.942 70.8287 143.666 70.1047 144.562 69.5787C145.505 69.024 146.539 68.7453 147.658 68.7453H148.322L148.963 68.925ZM146.351 78.3339L147.658 73.6281V78.5109C148.309 78.5109 148.929 78.3391 149.513 77.9979C150.046 77.6828 150.463 77.2766 150.763 76.7766L150.656 76.9563L150.536 77.1229C149.989 77.8807 149.005 78.813 147.588 79.9172C146.46 80.7974 144.942 81.8938 143.036 83.2063C139.328 85.7583 134.065 89.188 127.25 93.4927C113.614 102.105 101.481 109.178 90.8485 114.709L74.7729 123.071L84.4709 107.764C92.3276 95.3599 98.9578 85.076 104.359 76.912L108.432 79.6047L104.273 77.0474C104.127 77.2792 104.057 77.5396 104.057 77.826C104.057 78.2167 104.145 78.6099 104.325 79.0005C104.523 79.4328 104.796 79.7922 105.148 80.0787C104.177 79.2844 103.455 78.4406 102.979 77.5474C103.109 77.7922 103.291 78.0109 103.526 78.2063C103.825 78.4589 104.125 78.6229 104.421 78.701C103.416 78.4354 102.416 77.938 101.427 77.2063C101.692 77.4016 101.958 77.5474 102.223 77.6412C102.276 77.6594 102.32 77.675 102.359 77.6854L102.351 77.6828C102.117 77.6412 101.747 77.6229 101.247 77.6229C101.27 77.6229 101.294 77.6203 101.312 77.6203C101.268 77.6255 101.21 77.6385 101.138 77.6568C100.89 77.7219 100.585 77.8287 100.226 77.9823C99.299 78.3807 98.1662 79.0083 96.8276 79.8677C93.6662 81.8964 90.4422 83.925 87.1532 85.9537C85.2782 87.1125 83.5698 87.9953 82.0308 88.6047C80.1818 89.3365 78.4917 89.701 76.9604 89.701C75.5334 89.701 74.3459 89.5474 73.3979 89.2401C72.4474 88.9302 71.6427 88.4537 70.9865 87.8104C70.4761 87.313 70.0802 86.7427 69.799 86.0995C69.4943 85.4094 69.3433 84.6854 69.3433 83.9276V83.1359L70.1037 80.8573L74.7339 82.4016H69.8511C69.8511 82.8469 69.924 83.287 70.0698 83.7245C70.2938 84.3885 70.6532 84.9719 71.1558 85.4745C71.6558 85.9745 72.2391 86.3365 72.9058 86.5578C73.3433 86.7037 73.7834 86.7766 74.2261 86.7766C74.6532 86.7766 74.9917 86.7297 75.2417 86.6333C75.1193 86.6828 74.9214 86.7766 74.6479 86.9198C74.3589 87.0708 73.9526 87.4745 73.424 88.1307C73.187 88.425 73.0698 88.9302 73.0698 89.6516C73.0698 90.3287 73.3016 90.9458 73.7677 91.5005C73.8927 91.6464 74.0229 91.7505 74.161 91.8104C74.3771 91.9042 74.674 91.951 75.0516 91.951C78.1714 91.951 81.7183 90.0839 85.6948 86.3469L93.1505 92.5422C88.8042 99.3156 82.6141 108.631 74.5802 120.49L72.8641 123.027L69.8328 122.584C68.3276 122.363 66.9761 122.253 65.7703 122.253C65.8407 122.253 65.9058 122.245 65.9631 122.23C65.9735 122.227 65.9813 122.224 65.9865 122.222C65.9735 122.227 65.9604 122.235 65.9396 122.245C65.7052 122.373 65.4162 122.62 65.0776 122.993C64.7131 123.389 64.4604 123.74 64.3198 124.047C64.2625 124.175 64.2313 124.269 64.2313 124.331C64.2313 123.8 64.0828 123.29 63.7808 122.797C63.5047 122.344 63.161 122.008 62.7495 121.784C62.6662 121.738 62.5933 121.704 62.5308 121.685C62.5412 121.688 62.5698 121.693 62.6167 121.704C62.8615 121.748 63.1922 121.769 63.6089 121.769H73.9787L68.8693 129.376C53.9943 151.521 46.299 163.126 45.786 164.188C45.562 164.652 45.4032 165.016 45.312 165.279C45.3016 165.313 45.2938 165.339 45.286 165.363C45.2886 165.357 45.2912 165.347 45.2938 165.329C45.3302 165.159 45.3511 164.961 45.3511 164.735C45.3511 164.024 45.1844 163.417 44.8563 162.909C44.8146 162.844 44.7808 162.797 44.7547 162.769C44.7834 162.8 44.8302 162.844 44.8927 162.902C44.9865 162.985 45.0646 163.05 45.1297 163.099C45.1427 163.11 45.1532 163.118 45.1584 163.12C45.1453 163.113 45.1297 163.102 45.1063 163.089C44.6662 162.839 44.1245 162.711 43.4865 162.711C43.2469 162.711 42.9865 162.753 42.7052 162.834C42.1532 162.995 41.6532 163.277 41.2052 163.68C41.9787 162.985 42.8745 162.493 43.8927 162.201C43.6115 162.282 43.3589 162.407 43.1323 162.576C44.2547 161.735 45.6558 161.313 47.3328 161.313H47.4735L49.8381 161.448L49.5594 166.323L48.8849 161.488L51.9526 161.06H52.2912C51.6896 161.06 51.1271 161.167 50.5985 161.386C50.4396 161.451 50.3016 161.519 50.1844 161.589C50.2026 161.579 50.2756 161.521 50.4084 161.42C50.3901 161.433 50.3771 161.446 50.3719 161.454C50.3875 161.43 50.411 161.394 50.437 161.342C50.8693 160.474 57.6584 149.672 70.8016 128.933L72.9891 125.48L76.7756 127.029C80.911 128.719 88.5229 133.839 99.6089 142.383C103.822 145.672 108.049 148.907 112.286 152.089C116.398 155.178 120.177 157.738 123.622 159.764C125.171 160.675 126.528 161.344 127.695 161.771C128.591 162.102 129.291 162.266 129.791 162.266C130.424 162.266 130.916 162.217 131.273 162.118C131.348 162.097 131.398 162.079 131.424 162.066C131.382 162.086 131.333 162.123 131.276 162.175C131.455 162.014 131.729 161.652 132.098 161.089C132.604 160.318 133.169 159.313 133.799 158.073C134.455 156.782 134.937 155.766 135.247 155.029C135.364 154.748 135.442 154.54 135.486 154.404C135.429 154.589 135.401 154.852 135.401 155.198C135.401 155.586 135.471 155.982 135.611 156.383C135.83 156.998 136.182 157.534 136.666 157.99C137.119 158.417 137.635 158.722 138.213 158.904C138.554 159.011 138.882 159.063 139.203 159.063C140.072 159.063 140.856 158.855 141.559 158.441C141.598 158.417 141.632 158.396 141.661 158.378C141.656 158.381 141.648 158.386 141.632 158.396C141.481 158.506 141.239 158.688 140.911 158.946C139.242 160.253 137.294 160.907 135.07 160.907C133.593 160.907 131.815 160.451 129.731 159.54C128.08 158.818 126.101 157.764 123.796 156.378C119.414 153.745 113.677 149.808 106.588 144.566C96.4683 136.735 88.4995 131.162 82.6792 127.842L74.4136 123.128L83.062 119.162C101.27 110.813 117.531 102.183 131.846 93.2662C141.101 87.4823 148.473 82.1307 153.958 77.2141C153.713 77.438 153.515 77.7167 153.367 78.05C153.213 78.3964 153.138 78.7453 153.138 79.0969C153.138 79.4797 153.244 79.8313 153.455 80.149C153.515 80.2375 153.57 80.3052 153.625 80.3521C153.604 80.3365 153.562 80.3078 153.494 80.2662C152.703 79.7922 151.278 79.4016 149.223 79.0943L148.927 79.05L146.351 78.3339Z" fill="#EED4B6"/>
</g>
<path d="M147.656 73.6255L149.947 74.2609C155.328 75.0682 158.02 76.6776 158.02 79.0943C158.02 79.7766 157.765 80.3495 157.26 80.813C151.536 85.938 143.929 91.4693 134.437 97.4068C119.937 106.435 103.492 115.165 85.1037 123.594C91.1167 127.032 99.2729 132.735 109.572 140.698C123.39 150.915 131.89 156.021 135.072 156.021C136.177 156.021 137.117 155.717 137.895 155.105C138.679 154.487 139.117 154.178 139.208 154.178C139.921 154.178 140.281 154.519 140.281 155.198C140.281 155.79 139.567 157.485 138.145 160.282C136.729 163.081 135.523 164.925 134.531 165.813C133.536 166.701 131.958 167.146 129.791 167.146C127.63 167.146 124.75 166.086 121.145 163.969C117.541 161.852 113.609 159.193 109.354 155.99C105.096 152.79 100.846 149.537 96.6037 146.23C85.8797 137.967 78.6558 133.071 74.9266 131.542C61.8693 152.146 55.161 162.81 54.8016 163.532C54.4396 164.248 53.9735 164.829 53.4058 165.271C52.8354 165.714 52.4631 165.938 52.2912 165.938L49.562 166.323L47.3328 166.198C46.7417 166.198 46.3172 166.292 46.062 166.48C45.8042 166.672 45.5256 166.813 45.2287 166.896C44.937 166.98 44.6818 167.115 44.4683 167.303C44.2599 167.495 43.9318 167.594 43.4891 167.594C43.0438 167.594 42.4292 167.243 41.6453 166.542C40.8589 165.847 40.4683 165.248 40.4683 164.74C40.4683 164.227 40.7729 163.334 41.3849 162.063C42.0021 160.792 49.8146 148.987 64.8224 126.646H63.6141C60.7729 126.646 59.3537 125.876 59.3537 124.334C59.3537 122.787 60.062 121.238 61.4787 119.688C62.9006 118.141 64.3328 117.365 65.7703 117.365C67.2131 117.365 68.8042 117.495 70.5412 117.751C78.5464 105.925 84.7131 96.6438 89.0412 89.9068C84.1245 94.5266 79.4604 96.8339 75.0516 96.8339C72.9318 96.8339 71.2599 96.1047 70.0308 94.6464C68.8016 93.1828 68.187 91.5188 68.187 89.6568C68.187 87.7896 68.661 86.2609 69.6141 85.0734C70.5724 83.8859 71.4943 83.0604 72.3849 82.5943C73.2729 82.1307 73.8875 81.8964 74.2287 81.8964C74.5672 81.8964 74.7391 82.063 74.7391 82.3964L74.2287 83.9276C74.2287 84.5188 75.1375 84.813 76.9578 84.813C78.7834 84.813 81.3276 83.8078 84.5933 81.7922C87.8563 79.7792 91.0542 77.7688 94.187 75.7609C97.325 73.7479 99.6792 72.7401 101.25 72.7401C102.817 72.7401 103.846 72.9224 104.333 73.2818C104.817 73.6359 105.263 73.8703 105.666 73.9797C106.067 74.0839 106.395 74.2453 106.645 74.4589C106.901 74.6672 107.114 74.9328 107.281 75.2505C107.453 75.5708 107.773 75.9224 108.239 76.3026C108.703 76.6776 108.937 77.1854 108.937 77.8234C108.937 78.4563 108.77 79.05 108.437 79.6047C103.046 87.7453 96.4318 98.0005 88.5933 110.376C99.1063 104.912 111.125 97.9068 124.645 89.3651C138.166 80.8234 145.479 75.7896 146.583 74.2609C146.833 73.8391 147.19 73.6255 147.656 73.6255Z" fill="black"/>
<path d="M202.226 145.692L202.841 148.606V149.114C202.841 151.226 201.979 153.416 200.26 155.686C197.187 159.689 192.398 164.184 185.89 169.171C182.58 171.707 179.664 173.632 177.138 174.944C174.159 176.491 171.541 177.265 169.284 177.265C164.974 177.265 161.513 175.908 158.901 173.194C156.336 170.533 155.054 167.444 155.054 163.926C155.054 162.752 155.307 161.392 155.812 159.845C156.221 158.593 156.815 157.147 157.593 155.509C159.044 152.447 161.195 148.595 164.041 143.955C172.372 130.496 182.992 114.798 195.901 96.8635L199.864 99.7151L203.396 103.087L181.778 125.72C155.75 152.986 140.476 168.481 135.963 172.207C134.338 173.546 132.252 174.215 129.708 174.215C127.26 174.215 124.843 173.335 122.458 171.58C121.174 170.634 120.174 169.569 119.458 168.387C118.606 166.978 118.179 165.47 118.179 163.864V163.314L118.203 163.082C118.291 162.163 118.69 160.827 119.401 159.074C119.966 157.684 120.778 155.858 121.838 153.603C123.906 149.197 126.958 143.059 130.987 135.189C139.041 119.468 145.804 106.944 151.276 97.6239L155.487 100.095L159.101 103.379C151.19 112.085 143.19 121.804 135.101 132.535C119.726 152.895 108.505 170.186 101.432 184.41L97.0596 182.239L101.481 184.309C100.869 185.616 100.106 186.663 99.1898 187.457C97.8799 188.587 96.3877 189.155 94.708 189.155C93.3564 189.155 91.5882 188.869 89.4033 188.296C86.7106 187.561 84.6012 186.465 83.0726 185.007C82.1273 184.103 81.4059 183.08 80.9111 181.931C80.4111 180.772 80.1611 179.541 80.1611 178.233C80.1611 177.158 80.4971 175.866 81.1689 174.361C81.6247 173.34 82.2809 172.08 83.1403 170.574C84.7523 167.752 87.1455 163.947 90.3226 159.16C96.5986 149.705 103.872 139.379 112.143 128.189C120.435 116.968 129.026 106.166 137.919 95.7776C144.13 88.5041 149.268 83.0172 153.328 79.3192C155.497 77.3453 157.409 75.8375 159.062 74.7958C161.271 73.4026 163.278 72.7073 165.088 72.7073C166.463 72.7073 167.768 73.0406 169.002 73.7099C169.132 73.7802 169.211 73.8218 169.239 73.8323C168.778 73.6343 168.242 73.5328 167.63 73.5328C166.927 73.5328 166.263 73.689 165.638 74.0015C165.229 74.2073 164.869 74.4625 164.56 74.7724L168.013 78.2255L164.224 75.1474C165.75 73.2672 168.104 72.3271 171.286 72.3271C173.562 72.3271 175.768 72.7672 177.911 73.6448C179.231 74.189 180.302 74.8427 181.122 75.6057C181.739 76.1812 182.226 76.8218 182.586 77.5276C183.034 78.413 183.257 79.3453 183.257 80.3245C183.257 80.9859 183.119 81.6838 182.841 82.4156C182.731 82.6995 182.588 83.038 182.406 83.4286C182.109 84.0666 181.677 84.926 181.112 86.0067C180.031 88.0692 178.422 91.0172 176.281 94.8479C162.104 119.986 152.591 137.233 147.744 146.593L143.409 144.345L139.646 141.233C144.367 135.525 151.093 127.973 159.825 118.58C168.549 109.194 177.708 99.8323 187.304 90.4937C193.619 84.3713 198.69 79.7594 202.51 76.6604C204.531 75.0198 206.25 73.7672 207.661 72.9C209.674 71.6708 211.44 71.0536 212.961 71.0536C214.39 71.0536 216.067 71.3297 217.989 71.8791C220.187 72.5146 222.26 72.8349 224.213 72.8349H224.669L225.114 72.9182C226.703 73.2151 228.083 73.9 229.255 74.9703C229.911 75.5692 230.432 76.2281 230.817 76.9468C231.323 77.8948 231.575 78.8948 231.575 79.9416C231.575 81.6135 231.057 83.0536 230.021 84.2646L226.312 81.0875L230.213 84.0224C216.489 102.267 204.924 118.348 195.518 132.267C186.224 146.02 180.534 155.226 178.445 159.884L173.989 157.887L172.987 153.108C173.606 152.978 174.39 152.647 175.336 152.114C176.492 151.462 177.794 150.554 179.247 149.39C182.362 146.89 186.039 143.309 190.273 138.647L193.888 141.929L189.981 138.999C190.502 138.306 190.929 137.793 191.263 137.46C191.271 137.452 191.276 137.447 191.278 137.442C191.271 137.449 191.263 137.46 191.252 137.476L191.343 137.356L191.44 137.241C192.297 136.233 193.31 135.582 194.484 135.291C195.45 135.048 196.409 135.074 197.354 135.371C198.161 135.624 198.875 136.048 199.497 136.645C200.159 137.283 200.679 138.093 201.054 139.077C201.271 139.637 201.45 140.291 201.601 141.035L201.622 141.15L201.989 143.587C202.06 144.077 202.127 144.574 202.195 145.082C202.286 145.778 202.33 146.317 202.33 146.697H197.448L202.226 145.692ZM192.669 147.705L192.565 147.207V146.697C192.565 146.759 192.567 146.811 192.57 146.853C192.567 146.843 192.567 146.824 192.565 146.796C192.554 146.684 192.536 146.535 192.51 146.345C192.45 145.877 192.39 145.442 192.333 145.041L191.984 142.72L196.812 141.994L192.023 142.952C191.981 142.744 191.953 142.614 191.935 142.567C192.078 142.942 192.343 143.314 192.729 143.686C193.213 144.15 193.784 144.486 194.442 144.692C195.242 144.942 196.044 144.965 196.851 144.765C197.708 144.551 198.382 144.15 198.88 143.567L195.159 140.405L199.065 143.335C198.799 143.689 198.5 144.033 198.166 144.366L198.169 144.374C198.073 144.494 197.948 144.655 197.794 144.858L197.656 145.043L197.502 145.212C192.922 150.257 188.872 154.186 185.356 157.007C181.432 160.155 177.976 162.041 174.989 162.666L165.614 164.632L169.534 155.89C171.851 150.715 177.817 141.02 187.427 126.798C196.924 112.744 208.586 96.5276 222.411 78.1526L222.502 78.0276L222.604 77.9104C222.075 78.5276 221.81 79.2047 221.81 79.9416C221.81 80.525 221.942 81.0614 222.205 81.5536C222.346 81.8192 222.502 82.0276 222.669 82.1812C222.867 82.3609 223.08 82.4729 223.315 82.5172L224.213 77.7177V82.6005C221.336 82.6005 218.367 82.1552 215.307 81.2672C214.263 80.9703 213.479 80.8192 212.961 80.8192C213.205 80.8192 213.427 80.7958 213.622 80.7489C213.656 80.7385 213.685 80.7307 213.705 80.7229C213.703 80.7255 213.692 80.7307 213.674 80.7359C213.458 80.8245 213.153 80.9911 212.76 81.2307C211.716 81.8713 210.349 82.8739 208.664 84.2437C205.065 87.1604 200.216 91.5771 194.114 97.4911C184.638 106.718 175.591 115.962 166.979 125.228C158.375 134.483 151.773 141.892 147.172 147.457L139.073 142.101C143.974 132.64 153.534 115.301 167.755 90.0849C169.851 86.3297 171.422 83.4599 172.461 81.4755C172.955 80.5328 173.317 79.8088 173.549 79.3088C173.632 79.1317 173.687 79.0094 173.711 78.9442C173.565 79.3297 173.492 79.7906 173.492 80.3245C173.492 80.9 173.619 81.4416 173.875 81.9442C174.039 82.2698 174.237 82.538 174.466 82.7515C174.518 82.801 174.565 82.8401 174.606 82.8687V82.8713C174.513 82.8166 174.375 82.7515 174.198 82.6786C173.247 82.288 172.276 82.0927 171.286 82.0927C170.963 82.0927 170.765 82.1031 170.692 82.1265C171.086 82.0041 171.455 81.7307 171.802 81.3062L171.643 81.5015L171.466 81.6786C170.385 82.7594 169.106 83.2984 167.63 83.2984C166.893 83.2984 166.132 83.1317 165.356 82.7932C165.065 82.6682 164.731 82.5015 164.351 82.2958C164.567 82.4156 164.815 82.4729 165.088 82.4729C165.226 82.4729 165.343 82.4625 165.44 82.4416L165.448 82.439C165.422 82.4469 165.39 82.4599 165.356 82.4729C165.075 82.5823 164.713 82.7776 164.271 83.0562C163.101 83.7932 161.646 84.9547 159.903 86.5406C156.146 89.9651 151.289 95.1604 145.338 102.127C136.596 112.337 128.151 122.96 119.997 133.991C111.823 145.051 104.643 155.241 98.458 164.561C95.4033 169.163 93.1247 172.783 91.6221 175.416C90.9215 176.64 90.4111 177.614 90.0882 178.34C89.971 178.601 89.8929 178.793 89.8538 178.923C89.9033 178.765 89.9268 178.535 89.9268 178.233C89.9268 178.197 89.9111 178.14 89.8773 178.061C89.859 178.017 89.8382 177.978 89.8122 177.944L89.8148 177.942C90.1507 178.265 90.8382 178.567 91.8773 178.848C93.2523 179.21 94.195 179.39 94.708 179.39C93.9632 179.39 93.3252 179.616 92.8018 180.069C92.6898 180.166 92.6064 180.254 92.5518 180.332C92.57 180.306 92.5986 180.252 92.6403 180.166L92.6637 180.114L92.6872 180.064C100.028 165.298 111.567 147.494 127.302 126.655C135.573 115.686 143.763 105.739 151.875 96.8114L159.698 102.569C154.32 111.728 147.648 124.085 139.679 139.642C135.7 147.413 132.7 153.449 130.677 157.754C129.692 159.853 128.95 161.517 128.45 162.749C128.226 163.298 128.06 163.741 127.95 164.072C127.916 164.181 127.893 164.259 127.88 164.311C127.896 164.241 127.911 164.14 127.924 164.009L123.062 163.546H127.945V163.864C127.945 163.655 127.901 163.478 127.812 163.33C127.859 163.408 128.005 163.535 128.247 163.715C128.659 164.017 129.026 164.233 129.346 164.356C129.505 164.418 129.627 164.449 129.708 164.449C129.945 164.449 130.109 164.436 130.198 164.41C130.065 164.447 129.916 164.535 129.747 164.676C133.963 161.194 148.953 145.962 174.716 118.976L196.333 96.3427L203.828 102.567C191.052 120.319 180.565 135.817 172.364 149.059C169.703 153.403 167.718 156.949 166.416 159.694C165.815 160.96 165.375 162.02 165.096 162.877C164.984 163.223 164.903 163.515 164.854 163.757C164.838 163.835 164.828 163.897 164.823 163.949C164.82 163.96 164.82 163.965 164.82 163.968C164.82 163.957 164.82 163.944 164.82 163.926C164.82 164.819 165.192 165.65 165.935 166.421C166.627 167.14 167.744 167.499 169.284 167.499C169.513 167.499 169.854 167.429 170.31 167.285C170.974 167.074 171.747 166.739 172.635 166.278C174.653 165.228 177.093 163.608 179.95 161.418C185.776 156.955 189.953 153.077 192.476 149.788C192.773 149.397 192.976 149.074 193.088 148.822C193.099 148.796 193.109 148.772 193.114 148.757C193.112 148.759 193.112 148.767 193.106 148.783C193.086 148.877 193.073 148.986 193.073 149.114H197.955L193.179 150.119L192.669 147.705Z" fill="#EED4B6"/>
<path d="M197.453 146.699L197.963 149.116C197.963 150.132 197.432 151.34 196.37 152.741C193.57 156.387 189.088 160.574 182.922 165.304C176.755 170.028 172.208 172.387 169.286 172.387C166.362 172.387 164.073 171.528 162.422 169.814C160.768 168.093 159.942 166.132 159.942 163.929C159.942 161.298 162.695 155.488 168.203 146.502C176.466 133.155 187.021 117.559 199.87 99.7099C197.153 102.509 189.948 110.054 178.255 122.345C152.351 149.47 137.219 164.835 132.859 168.439C132.135 169.038 131.083 169.335 129.703 169.335C128.328 169.335 126.875 168.772 125.349 167.647C123.828 166.522 123.067 165.262 123.067 163.866V163.543C123.234 161.767 127.32 153.059 135.328 137.418C143.341 121.772 150.06 109.332 155.484 100.095C147.476 108.908 139.383 118.741 131.203 129.595C115.646 150.194 104.265 167.741 97.057 182.241C96.4242 183.595 95.6456 184.272 94.7133 184.272C93.7758 184.272 92.419 184.038 90.6404 183.574C86.9112 182.554 85.0466 180.772 85.0466 178.231C85.0466 176.702 88.1612 171.246 94.3904 161.866C100.62 152.478 107.844 142.22 116.067 131.095C124.289 119.965 132.81 109.249 141.63 98.9494C153.797 84.7073 161.614 77.5849 165.088 77.5849C165.635 77.5849 166.164 77.7255 166.672 78.0015C167.185 78.2802 167.505 78.4182 167.63 78.4182C167.76 78.4182 167.89 78.3531 168.015 78.2203C168.562 77.5484 169.653 77.2099 171.286 77.2099C172.916 77.2099 174.508 77.5302 176.057 78.1682C177.604 78.801 178.38 79.5198 178.38 80.3244C178.38 80.8323 176.258 84.8817 172.015 92.4703C157.82 117.645 148.286 134.936 143.411 144.345C148.07 138.707 154.734 131.228 163.401 121.908C172.073 112.582 181.177 103.278 190.713 93.9911C203.13 81.9573 210.547 75.939 212.963 75.939C213.935 75.939 215.164 76.1526 216.651 76.5744C219.276 77.3323 221.797 77.7099 224.213 77.7099C224.893 77.8427 225.476 78.1317 225.963 78.5744C226.448 79.0198 226.692 79.4755 226.692 79.939C226.692 80.4052 226.567 80.788 226.317 81.0849C212.539 99.3974 200.924 115.548 191.474 129.533C182.021 143.52 176.195 152.97 173.995 157.887C178.437 156.957 185.07 151.637 193.89 141.929C194.271 141.423 194.547 141.085 194.713 140.918C194.885 140.746 195.036 140.574 195.161 140.408C195.883 139.554 196.435 140.082 196.817 141.991C196.984 143.095 197.099 143.871 197.161 144.314C197.224 144.759 197.286 145.225 197.349 145.71C197.416 146.197 197.453 146.528 197.453 146.699Z" fill="black"/>
</g>
</svg>
