<svg width="777" height="579" viewBox="0 0 777 579" fill="none" xmlns="http://www.w3.org/2000/svg">
<mask id="mask0_18_2282" style="mask-type:luminance" maskUnits="userSpaceOnUse" x="0" y="0" width="777" height="579">
<path d="M777 0H0V579H777V0Z" fill="white"/>
</mask>
<g mask="url(#mask0_18_2282)">
<path d="M611.725 414.699C610.343 407.881 610.246 400.66 611.637 393.309C617.719 361.151 649.977 338.671 683.688 343.097C717.399 347.523 739.796 377.18 733.713 409.337C727.631 441.494 695.372 463.975 661.661 459.548C652.629 458.362 644.408 455.364 637.33 450.993" stroke="#FFAB4C" stroke-width="1.128" stroke-linecap="round" stroke-linejoin="round"/>
<path d="M634.278 451.581C631.77 451.252 630.103 449.044 630.555 446.651C631.008 444.258 633.409 442.585 635.917 442.914C638.426 443.244 640.093 445.451 639.64 447.844C639.188 450.237 636.787 451.91 634.278 451.581Z" stroke="#FFAB4C" stroke-width="1.128" stroke-miterlimit="10"/>
<path d="M745.199 176.362C745.199 256.899 674.184 322.188 586.581 322.188C498.979 322.188 427.963 256.899 427.963 176.362C427.963 95.8252 498.979 30.537 586.581 30.537C674.184 30.537 745.199 95.8252 745.199 176.362Z" fill="#FEF5ED"/>
<path d="M310.99 461.173C310.99 508.245 269.483 546.405 218.281 546.405C167.08 546.405 125.572 508.245 125.572 461.173C125.572 414.101 167.08 375.941 218.281 375.941C269.483 375.941 310.99 414.101 310.99 461.173Z" fill="#FEF5ED"/>
<path d="M200.006 75.832C153.197 75.832 115.251 110.719 115.251 153.752C115.251 196.786 153.197 231.672 200.006 231.672C246.815 231.672 284.762 196.786 284.762 153.752C284.762 110.719 246.815 75.832 200.006 75.832ZM200.006 203.57C170.079 203.57 145.818 181.266 145.818 153.752C145.818 126.239 170.079 103.934 200.006 103.934C229.934 103.934 254.195 126.239 254.195 153.752C254.195 181.266 229.934 203.57 200.006 203.57Z" fill="#EDD4B5"/>
<path d="M428.622 233.547L430.381 224.25C439.404 223.458 448.142 221.276 456.302 217.889L461.949 225.366C464.383 228.589 469.198 229.221 472.705 226.778L490.774 214.185C494.28 211.742 495.149 207.149 492.714 203.925L487.07 196.449C492.954 190.048 497.825 182.746 501.409 174.752L511.154 176.031C515.355 176.583 519.374 173.781 520.132 169.774L524.038 149.124C524.796 145.117 522.006 141.421 517.805 140.87L508.06 139.59C507.6 131.065 505.66 122.869 502.424 115.271L510.555 109.604C514.062 107.16 514.931 102.566 512.496 99.3427L499.951 82.731C497.517 79.5076 492.702 78.8753 489.195 81.3188L481.063 86.9855C474.549 81.6721 467.04 77.3562 458.746 74.2904L460.504 64.995C461.262 60.9878 458.472 57.2923 454.271 56.7407L432.623 53.8983C428.422 53.3467 424.402 56.1481 423.644 60.1553L421.886 69.4507C412.862 70.2428 404.125 72.4247 395.964 75.8113L390.319 68.3362C387.884 65.1127 383.068 64.4804 379.562 66.9238L361.493 79.5159C357.987 81.9593 357.118 86.5534 359.552 89.7768L365.198 97.2527C359.314 103.653 354.443 110.955 350.858 118.949L341.113 117.67C336.912 117.118 332.893 119.92 332.135 123.927L328.229 144.577C327.471 148.584 330.262 152.28 334.462 152.832L344.207 154.111C344.667 162.636 346.607 170.833 349.843 178.431L341.711 184.098C338.205 186.542 337.336 191.135 339.771 194.359L352.316 210.971C354.75 214.194 359.566 214.827 363.072 212.383L371.204 206.716C377.719 212.03 385.227 216.344 393.521 219.411L391.763 228.707C391.005 232.713 393.796 236.409 397.996 236.961L419.645 239.803C423.845 240.355 427.865 237.553 428.622 233.547ZM387.519 141.781C391.367 121.437 411.775 107.215 433.101 110.015C454.427 112.815 468.596 131.577 464.748 151.921C460.9 172.265 440.493 186.486 419.166 183.686C397.84 180.886 383.671 162.125 387.519 141.781Z" fill="#F29326"/>
<mask id="mask1_18_2282" style="mask-type:alpha" maskUnits="userSpaceOnUse" x="550" y="76" width="107" height="58">
<path d="M656.163 76.7349L550.501 76.5605V133.065H656.163V76.7349Z" fill="#FFA947"/>
</mask>
<g mask="url(#mask1_18_2282)">
<path d="M551.515 85.8085V77.4353H602.367V85.8085H551.515Z" fill="#EDD4B5"/>
<path d="M551.515 100.791V92.4188H628.19V100.791H551.515Z" fill="#EDD4B5"/>
<path d="M551.515 115.776V107.402H646.067V115.776H551.515Z" fill="#EDD4B5"/>
<path d="M551.515 130.759V122.386H587.669V130.759H551.515Z" fill="#EDD4B5"/>
</g>
<path d="M509.152 557.952C509.152 562.89 504.797 566.893 499.426 566.893H253.496C248.125 566.893 243.77 562.89 243.77 557.952C243.77 553.013 248.125 549.01 253.496 549.01H340.799L352.841 528.572H373.682H379.24H400.081L412.123 549.01H499.426C504.797 549.01 509.152 553.013 509.152 557.952Z" fill="#D8C0A5"/>
<path d="M394.579 520.907H354.285V510.05H394.579V520.907Z" fill="#FFAB4C"/>
<path d="M394.579 503.025H354.285V492.167H394.579V503.025Z" fill="#FFAB4C"/>
<path d="M78.4414 479.285V151.368C78.4414 146.949 82.3378 143.368 87.144 143.368H665.779C670.584 143.368 674.481 146.95 674.481 151.368V479.285C674.481 483.703 670.584 487.285 665.779 487.285H87.1432C82.3378 487.285 78.4414 483.703 78.4414 479.285Z" fill="#D8C0A5"/>
<mask id="mask2_18_2282" style="mask-type:alpha" maskUnits="userSpaceOnUse" x="16" y="176" width="106" height="57">
<path d="M121.975 176.49L16.314 176.316V232.821H121.975V176.49Z" fill="#FFA947"/>
</mask>
<g mask="url(#mask2_18_2282)">
<path d="M17.3276 210.697V202.324H68.1794V210.697H17.3276Z" fill="#DA8729"/>
<path d="M17.3276 225.68V217.307H94.0025V225.68H17.3276Z" fill="#EDD4B5"/>
<path d="M17.3276 240.664V232.29H111.88V240.664H17.3276Z" fill="#EDD4B5"/>
</g>
<path d="M101.139 265.761H85.0735V250.991H70.1559V265.761H54.0903V279.476H70.1559V294.246H85.0735V279.476H101.139V265.761Z" fill="#FF9319"/>
<path d="M59.9375 303.755H51.0415V295.576H42.7813V303.755H33.8853V311.349H42.7813V319.526H51.0415V311.349H59.9375V303.755Z" fill="#DA8729"/>
<path d="M72.7507 409.665H19.9519V361.125H72.7507V409.665Z" stroke="#F29326" stroke-width="1.128" stroke-miterlimit="10"/>
<path d="M99.5337 398.615H46.7356V350.074H99.5337V398.615Z" fill="#F29326"/>
<path d="M133.018 182.084H122.25V176.017H133.018V182.084Z" fill="#DA8729"/>
<path d="M183.386 198.371H121.903V185.917H183.386V198.371Z" fill="#595959"/>
<path d="M257.373 198.371H195.891V185.917H257.373V198.371Z" fill="#595959"/>
<path d="M444.947 198.371H383.464V185.917H444.947V198.371Z" fill="#595959"/>
<path d="M632.52 198.371H571.037V185.917H632.52V198.371Z" fill="#595959"/>
<path d="M375.648 198.371H265.709V185.917H375.648V198.371Z" fill="#595959"/>
<path d="M562.18 198.371H452.241V185.917H562.18V198.371Z" fill="#595959"/>
<path d="M373.65 198.369L265.709 198.371V185.917L373.65 185.915V198.369Z" fill="#FFAB4C"/>
<path d="M562.18 198.371H452.24V185.917H562.18V198.371Z" fill="#DA8729"/>
<path d="M249.513 443.626H128.72C125.53 443.626 122.945 441.25 122.945 438.317V249.666C122.945 246.734 125.53 244.356 128.72 244.356H249.513C252.703 244.356 255.288 246.734 255.288 249.666V438.317C255.288 441.25 252.703 443.626 249.513 443.626Z" fill="#595959"/>
<path d="M145.87 262.24H141.818V258.514H145.87V262.24Z" fill="white"/>
<path d="M159.765 262.24H155.713V258.514H159.765V262.24Z" fill="white"/>
<path d="M173.659 262.24H169.607V258.514H173.659V262.24Z" fill="white"/>
<mask id="mask3_18_2282" style="mask-type:alpha" maskUnits="userSpaceOnUse" x="138" y="272" width="105" height="139">
<path d="M242.054 273.107L138.289 272.758L139.048 410.009L241.485 409.834L242.054 273.107Z" fill="#595959"/>
</mask>
<g mask="url(#mask3_18_2282)">
<path d="M240.179 280.555H139.618V275.286H240.179V280.555Z" fill="#D8C0A5"/>
<path d="M240.179 292.53H139.618V287.261H240.179V292.53Z" fill="#D8C0A5"/>
</g>
<mask id="mask4_18_2282" style="mask-type:alpha" maskUnits="userSpaceOnUse" x="138" y="272" width="105" height="139">
<path d="M242.054 273.107L138.289 272.758L139.048 410.009L241.485 409.834L242.054 273.107Z" fill="#595959"/>
</mask>
<g mask="url(#mask4_18_2282)">
<path d="M183.906 305.161H139.618V298.933H183.906V305.161Z" fill="white"/>
<path d="M183.906 319.052H139.618V312.825H183.906V319.052Z" fill="white"/>
<path d="M183.906 332.944H139.618V326.716H183.906V332.944Z" fill="white"/>
<path d="M166.712 390.904H139.618V384.677H166.712V390.904Z" fill="white"/>
<path d="M166.712 404.795H139.618V398.569H166.712V404.795Z" fill="white"/>
<path d="M213.258 404.795H186.164V398.569H213.258V404.795Z" fill="white"/>
<path d="M156.638 375.097H139.618V368.87H156.638V375.097Z" fill="white"/>
<path d="M221.594 375.097H212.563V368.87H221.594V375.097Z" fill="white"/>
<path d="M209.09 375.097H162.544V368.87H209.09V375.097Z" fill="#FFAB4C"/>
<path d="M146.131 351.625H139.618V345.398H146.131V351.625Z" fill="#DA8729"/>
<path d="M146.131 362.642H139.618V356.416H146.131V362.642Z" fill="#FFAB4C"/>
<path d="M175.743 406.073H173.312L179.13 398.089H181.562L175.743 406.073Z" fill="white"/>
</g>
<path d="M259.804 327.385H249.384V268.627H259.804V327.385Z" stroke="#F29326" stroke-width="1.128" stroke-miterlimit="10"/>
<path d="M238.268 326.747H196.585V234.776H238.268V326.747Z" stroke="#F29326" stroke-width="1.128" stroke-miterlimit="10"/>
<mask id="mask5_18_2282" style="mask-type:alpha" maskUnits="userSpaceOnUse" x="196" y="234" width="43" height="93">
<path d="M238.268 326.747H196.585V234.776H238.268V326.747Z" fill="#FF8700"/>
</mask>
<g mask="url(#mask5_18_2282)">
<path d="M214.648 262.905H202.49V259.602H214.648V262.905Z" fill="#FF9319"/>
<path d="M214.648 270.275H202.49V266.971H214.648V270.275Z" fill="#FF9319"/>
<path d="M214.648 277.644H202.49V274.341H214.648V277.644Z" fill="#FF9319"/>
<path d="M214.648 315.966H202.49V312.662H214.648V315.966Z" fill="#FF9319"/>
<path d="M220.205 288.453H202.49V285.149H220.205V288.453Z" fill="#FF9319"/>
<path d="M220.205 295.822H202.49V292.519H220.205V295.822Z" fill="white"/>
<path d="M220.205 303.192H202.49V299.888H220.205V303.192Z" fill="white"/>
</g>
<mask id="mask6_18_2282" style="mask-type:alpha" maskUnits="userSpaceOnUse" x="196" y="234" width="43" height="93">
<path d="M238.268 326.747H196.585V234.776H238.268V326.747Z" fill="#FF8700"/>
</mask>
<g mask="url(#mask6_18_2282)">
<path d="M214.648 239.928H202.49V236.625H214.648V239.928Z" fill="#FF9319"/>
</g>
<path d="M280.82 235.255H278.388V233.02H280.82V235.255Z" fill="#595959"/>
<path d="M289.157 235.255H286.725V233.02H289.157V235.255Z" fill="#595959"/>
<path d="M297.492 235.255H295.061V233.02H297.492V235.255Z" fill="#595959"/>
<path d="M402.221 248.827H277.867V243.079H402.221V248.827Z" fill="#595959"/>
<path d="M402.221 263.677H277.867V257.928H402.221V263.677Z" fill="#595959"/>
<path d="M402.221 278.526H277.867V272.778H402.221V278.526Z" fill="#595959"/>
<path d="M334.226 248.827H277.867V243.079H334.226V248.827Z" fill="#DA8729"/>
<path d="M364.446 263.677H277.867V257.928H364.446V263.677Z" fill="#FFAB4C"/>
<path d="M303.224 278.526H277.867V272.778H303.224V278.526Z" fill="#FF9319"/>
<path d="M281.32 320.49C283.522 332.133 295.202 340.273 307.408 338.671C319.614 337.068 327.723 326.33 325.521 314.686C323.319 303.042 311.638 294.902 299.432 296.505C287.226 298.108 279.117 308.846 281.32 320.49ZM314.938 316.076C316.086 322.143 311.859 327.739 305.498 328.574C299.137 329.41 293.05 325.167 291.903 319.1C290.755 313.032 294.981 307.436 301.342 306.601C307.703 305.766 313.79 310.008 314.938 316.076Z" fill="#595959"/>
<path d="M303.528 332.31C303.164 330.368 301.64 328.825 299.672 328.181C295.656 326.868 292.448 323.535 291.654 319.3C290.861 315.065 292.694 311.064 296.036 308.776C297.673 307.654 298.558 305.792 298.194 303.849C297.509 300.191 293.045 298.219 289.922 300.281C283.321 304.638 279.674 312.431 281.221 320.683C282.767 328.934 289.086 335.406 296.961 337.845C300.687 338.999 304.213 335.968 303.528 332.31Z" fill="#F29326"/>
<path d="M368.542 296.505C356.337 294.902 344.656 303.042 342.453 314.686C340.251 326.329 348.361 337.068 360.566 338.67C372.772 340.273 384.454 332.133 386.656 320.49C388.858 308.846 380.748 298.107 368.542 296.505ZM362.476 328.574C356.116 327.739 351.89 322.143 353.038 316.075C354.185 310.008 360.272 305.766 366.632 306.601C372.993 307.436 377.22 313.032 376.072 319.1C374.924 325.168 368.837 329.409 362.476 328.574Z" fill="#595959"/>
<path d="M349.508 313.829C351.581 314.103 353.62 313.163 354.895 311.519C357.495 308.165 361.872 306.211 366.392 306.809C370.913 307.406 374.362 310.395 375.606 314.257C376.217 316.15 377.812 317.57 379.885 317.844C383.79 318.361 387.196 314.796 386.11 311.211C383.816 303.635 377.122 297.741 368.314 296.577C359.508 295.413 350.977 299.294 346.016 305.911C343.669 309.042 345.604 313.313 349.508 313.829Z" fill="#FFAB4C"/>
<path d="M283.595 430.45C283.625 429.994 283.655 429.317 283.655 428.724V420.647H284.961V424.844H284.991C285.457 424.099 286.298 423.616 287.469 423.616C289.271 423.616 290.548 424.996 290.533 427.026C290.533 429.414 288.895 430.602 287.274 430.602C286.223 430.602 285.381 430.229 284.841 429.345H284.796L284.735 430.45H283.595ZM284.961 427.771C284.961 427.923 284.99 428.076 285.021 428.213C285.276 429.055 286.042 429.635 287.003 429.635C288.385 429.635 289.211 428.599 289.211 427.067C289.211 425.728 288.46 424.582 287.048 424.582C286.147 424.582 285.306 425.148 285.036 426.073C285.006 426.211 284.961 426.376 284.961 426.57V427.771Z" fill="#FEDFBD"/>
<path d="M293.833 427.329C293.863 428.971 295.003 429.649 296.325 429.649C297.271 429.649 297.842 429.496 298.338 429.303L298.563 430.173C298.098 430.366 297.302 430.588 296.145 430.588C293.908 430.588 292.572 429.235 292.572 427.219C292.572 425.203 293.862 423.616 295.98 423.616C298.353 423.616 298.983 425.534 298.983 426.763C298.983 427.012 298.954 427.204 298.939 427.329H293.833ZM297.707 426.459C297.722 425.687 297.362 424.485 295.875 424.485C294.539 424.485 293.953 425.617 293.848 426.459H297.707Z" fill="#FEDFBD"/>
<path d="M303.109 421.849V423.767H305.002V424.692H303.109V428.296C303.109 429.125 303.364 429.593 304.1 429.593C304.446 429.593 304.701 429.552 304.867 429.511L304.927 430.422C304.672 430.519 304.266 430.588 303.755 430.588C303.139 430.588 302.644 430.408 302.329 430.077C301.953 429.718 301.818 429.124 301.818 428.336V424.692H300.692V423.767H301.818V422.166L303.109 421.849Z" fill="#FEDFBD"/>
<path d="M311.412 430.449L311.307 429.607H311.262C310.857 430.132 310.076 430.602 309.039 430.602C307.568 430.602 306.817 429.649 306.817 428.682C306.817 427.068 308.378 426.183 311.187 426.197V426.059C311.187 425.507 311.021 424.513 309.535 424.513C308.859 424.513 308.153 424.705 307.642 425.01L307.342 424.209C307.943 423.85 308.813 423.616 309.73 423.616C311.952 423.616 312.493 425.01 312.493 426.349V428.848C312.493 429.428 312.523 429.994 312.613 430.449H311.412ZM311.216 427.04C309.775 427.012 308.138 427.247 308.138 428.544C308.138 429.331 308.709 429.703 309.385 429.703C310.331 429.703 310.932 429.152 311.142 428.585C311.187 428.461 311.216 428.323 311.216 428.199V427.04Z" fill="#FEDFBD"/>
<path d="M321.198 421.849V423.767H323.091V424.692H321.198V428.296C321.198 429.125 321.453 429.593 322.189 429.593C322.534 429.593 322.79 429.552 322.956 429.511L323.016 430.422C322.761 430.519 322.355 430.588 321.844 430.588C321.228 430.588 320.733 430.408 320.417 430.077C320.042 429.718 319.907 429.124 319.907 428.336V424.692H318.781V423.767H319.907V422.166L321.198 421.849Z" fill="#FEDFBD"/>
<path d="M326.122 427.329C326.152 428.971 327.293 429.649 328.615 429.649C329.561 429.649 330.131 429.496 330.627 429.303L330.852 430.173C330.387 430.366 329.591 430.588 328.435 430.588C326.197 430.588 324.86 429.235 324.86 427.219C324.86 425.203 326.152 423.616 328.269 423.616C330.642 423.616 331.273 425.534 331.273 426.763C331.273 427.012 331.242 427.204 331.227 427.329H326.122ZM329.996 426.459C330.012 425.687 329.65 424.485 328.164 424.485C326.828 424.485 326.242 425.617 326.136 426.459H329.996Z" fill="#FEDFBD"/>
<path d="M333.627 429.207C334.018 429.442 334.708 429.69 335.369 429.69C336.331 429.69 336.781 429.248 336.781 428.696C336.781 428.116 336.406 427.799 335.429 427.467C334.123 427.04 333.507 426.376 333.507 425.575C333.507 424.498 334.454 423.616 336.015 423.616C336.751 423.616 337.397 423.809 337.802 424.03L337.471 424.913C337.186 424.748 336.662 424.527 335.986 424.527C335.205 424.527 334.768 424.941 334.768 425.437C334.768 425.99 335.204 426.238 336.15 426.569C337.411 427.012 338.057 427.591 338.057 428.585C338.057 429.76 337.066 430.588 335.339 430.588C334.543 430.588 333.808 430.408 333.297 430.132L333.627 429.207Z" fill="#FEDFBD"/>
<path d="M342.245 421.849V423.767H344.137V424.692H342.245V428.296C342.245 429.125 342.5 429.593 343.236 429.593C343.581 429.593 343.836 429.552 344.002 429.511L344.061 430.422C343.807 430.519 343.401 430.588 342.891 430.588C342.275 430.588 341.779 430.408 341.463 430.077C341.088 429.718 340.953 429.124 340.953 428.336V424.692H339.827V423.767H340.953V422.166L342.245 421.849Z" fill="#FEDFBD"/>
<path d="M568.562 426.902H359.651V423.451H568.562V426.902Z" fill="#565656"/>
<path d="M462.386 433.515H359.651V430.064H462.386V433.515Z" fill="#565656"/>
<path d="M294.522 440.343H307.188L308.829 437.109H283.263V442.5H292.176L294.522 440.343Z" fill="#FFAB4C"/>
<path d="M320.773 438.366H319.365V437.072H320.773V438.366Z" fill="#FEDFBD"/>
<path d="M329.51 438.366H328.103V437.072H329.51V438.366Z" fill="#FEDFBD"/>
<path d="M338.247 438.366H336.84V437.072H338.247V438.366Z" fill="#FEDFBD"/>
<path d="M583.574 433.802H580.447L575.443 423.451H578.57L583.574 433.802Z" fill="#565656"/>
<path d="M591.705 433.802H588.578L583.574 423.451H586.702L591.705 433.802Z" fill="#565656"/>
<path d="M599.836 433.802H596.709L591.705 423.451H594.833L599.836 433.802Z" fill="#565656"/>
<path d="M607.968 433.802H604.841L599.836 423.451H602.964L607.968 433.802Z" fill="#565656"/>
<path d="M615.943 433.802H612.815L607.812 423.451H610.939L615.943 433.802Z" fill="#565656"/>
<path d="M617.506 384.492L606.717 392.256L591.236 394.843C591.236 394.843 576.694 393.981 575.287 393.981C573.879 393.981 564.028 386.649 564.028 386.649L545.732 380.611L533.066 384.923L518.055 381.905L495.537 380.611L473.958 388.374L456.132 390.962L440.182 395.705L422.356 396.999L403.122 383.199L385.296 380.18L367 389.668L352.458 393.981L335.948 393.549L315.139 405.194H302.731L281.778 411.95" stroke="#CE7816" stroke-width="1.015" stroke-miterlimit="10"/>
<path d="M619.54 384.923C619.54 386.273 618.349 387.368 616.881 387.368C615.413 387.368 614.223 386.273 614.223 384.923C614.223 383.574 615.413 382.48 616.881 382.48C618.349 382.48 619.54 383.574 619.54 384.923Z" fill="#FEDFBD"/>
<path d="M282.09 412.238H617.976" stroke="#FEDFBD" stroke-width="0.254" stroke-miterlimit="10"/>
<path d="M282.247 416.12H278.806V408.357H282.247V416.12Z" fill="#FEDFBD"/>
<path d="M619.384 416.12H615.943V408.357H619.384V416.12Z" fill="#FEDFBD"/>
<path d="M617.663 412.238V386.217" stroke="#FEDFBD" stroke-width="0.254" stroke-miterlimit="10"/>
<path d="M567.548 426.878L359.651 426.901V423.451L567.548 423.427V426.878Z" fill="#FFAB4C"/>
<path d="M408.474 457.997H427.231L437.652 467.577H546.028L562.701 452.249H621.057" stroke="white" stroke-width="1.128" stroke-miterlimit="10"/>
<path d="M408.474 458.237C408.474 461.014 406.024 463.266 403.003 463.266C399.981 463.266 397.532 461.014 397.532 458.237C397.532 455.459 399.981 453.207 403.003 453.207C406.024 453.207 408.474 455.459 408.474 458.237Z" stroke="white" stroke-width="1.128" stroke-miterlimit="10"/>
<path d="M632.172 452.009C632.172 454.787 629.723 457.039 626.701 457.039C623.68 457.039 621.231 454.787 621.231 452.009C621.231 449.231 623.68 446.98 626.701 446.98C629.723 446.98 632.172 449.231 632.172 452.009Z" stroke="white" stroke-width="1.128" stroke-miterlimit="10"/>
<path d="M468.198 455.635H460.599V448.649H468.198V455.635Z" fill="white"/>
<path d="M494.249 458.935H486.651V451.949H494.249V458.935Z" fill="white"/>
<path d="M520.302 458.935H512.703V451.949H520.302V458.935Z" fill="white"/>
<path d="M607.743 368.348H604.019L603.643 370.653C603.869 370.626 604.079 370.599 604.439 370.599C605.191 370.599 605.941 370.75 606.542 371.081C607.308 371.481 607.938 372.255 607.938 373.387C607.938 375.14 606.422 376.452 604.304 376.452C603.239 376.452 602.337 376.176 601.872 375.9L602.202 374.975C602.608 375.195 603.404 375.472 604.29 375.472C605.537 375.472 606.603 374.726 606.603 373.525C606.587 372.366 605.746 371.538 603.794 371.538C603.239 371.538 602.803 371.592 602.442 371.634L603.073 367.326H607.743V368.348Z" fill="#FEDFBD"/>
<path d="M617.006 371.717C617.006 374.768 615.775 376.452 613.612 376.452C611.705 376.452 610.413 374.809 610.384 371.841C610.384 368.832 611.796 367.175 613.778 367.175C615.835 367.175 617.006 368.859 617.006 371.717ZM611.705 371.855C611.705 374.188 612.486 375.514 613.687 375.514C615.038 375.514 615.684 374.064 615.684 371.772C615.684 369.564 615.068 368.114 613.702 368.114C612.546 368.114 611.705 369.411 611.705 371.855Z" fill="#FEDFBD"/>
<path d="M625.607 371.717C625.607 374.768 624.377 376.452 622.214 376.452C620.306 376.452 619.015 374.809 618.985 371.841C618.985 368.832 620.397 367.175 622.379 367.175C624.436 367.175 625.607 368.859 625.607 371.717ZM620.306 371.855C620.306 374.188 621.087 375.514 622.288 375.514C623.64 375.514 624.286 374.064 624.286 371.772C624.286 369.564 623.67 368.114 622.304 368.114C621.148 368.114 620.306 369.411 620.306 371.855Z" fill="#FEDFBD"/>
<path d="M710.941 401.322C710.941 420.752 693.81 436.503 672.676 436.503C651.542 436.503 634.408 420.752 634.408 401.322C634.408 381.893 651.542 366.142 672.676 366.142C693.81 366.142 710.941 381.893 710.941 401.322Z" fill="#FFAB4C"/>
<path d="M669.902 398.022L654.703 403.141L669.902 408.219V413.465L648.177 405.869V400.414L669.902 392.82V398.022Z" fill="#FBF9F8"/>
<path d="M674.866 392.82L696.592 400.414V405.869L674.866 413.465V408.219L690.064 403.141L674.866 398.022V392.82Z" fill="#FBF9F8"/>
<path d="M731.246 326.747H440.007C437.171 326.747 434.873 324.634 434.873 322.027V239.496C434.873 236.889 437.171 234.776 440.007 234.776H731.246C734.082 234.776 736.38 236.889 736.38 239.496V322.027C736.38 324.634 734.082 326.747 731.246 326.747Z" fill="#F29326"/>
<path d="M513.839 315.037H509.786V311.312H513.839V315.037Z" fill="white"/>
<path d="M527.733 315.037H523.681V311.312H527.733V315.037Z" fill="white"/>
<path d="M541.628 315.037H537.575V311.312H541.628V315.037Z" fill="white"/>
<path d="M524.492 294.174C524.492 294.174 555.99 291.158 583.849 286.314C619.811 278.792 646.153 274.231 705.813 284.594" stroke="white" stroke-width="1.128" stroke-miterlimit="10"/>
<path d="M663.76 281.679H657.508V275.931H663.76V281.679Z" fill="#F29326"/>
<path d="M663.76 281.679H657.508V275.931H663.76V281.679Z" stroke="white" stroke-width="1.128" stroke-miterlimit="10"/>
<path d="M621.035 280.401H700.233" stroke="white" stroke-width="0.564" stroke-miterlimit="10"/>
<path d="M532.747 288.383H611.945" stroke="white" stroke-width="0.564" stroke-miterlimit="10"/>
<path d="M572.346 291.257H566.093V285.509H572.346V291.257Z" fill="#F29326"/>
<path d="M572.346 291.257H566.093V285.509H572.346V291.257Z" stroke="white" stroke-width="1.128" stroke-miterlimit="10"/>
<path d="M709.981 260.004H642.594V253.937H709.981V260.004Z" fill="white"/>
<path d="M492.995 350.378H422.602C420.554 350.378 418.894 348.852 418.894 346.97V254.791C418.894 252.908 420.554 251.382 422.602 251.382H492.995C495.043 251.382 496.703 252.908 496.703 254.791V346.97C496.703 348.852 495.043 350.378 492.995 350.378Z" fill="#595959"/>
<mask id="mask7_18_2282" style="mask-type:alpha" maskUnits="userSpaceOnUse" x="418" y="251" width="79" height="100">
<path d="M492.995 350.378H422.602C420.554 350.378 418.894 348.852 418.894 346.97V254.791C418.894 252.908 420.554 251.382 422.602 251.382H492.995C495.043 251.382 496.703 252.908 496.703 254.791V346.97C496.703 348.852 495.043 350.378 492.995 350.378Z" fill="#595959"/>
</mask>
<g mask="url(#mask7_18_2282)">
<path d="M475.34 279.191H431.052V273.578H475.34V279.191Z" fill="white"/>
<path d="M475.34 291.713H431.052V286.1H475.34V291.713Z" fill="white"/>
<path d="M447.725 304.237H431.052V298.622H447.725V304.237Z" fill="white"/>
<path d="M459.883 317.191H431.052V311.577H459.883V317.191Z" fill="#F29326"/>
<path d="M450.505 329.713H431.052V324.1H450.505V329.713Z" fill="#F29326"/>
<path d="M450.505 342.237H431.052V336.623H450.505V342.237Z" fill="white"/>
</g>
<mask id="mask8_18_2282" style="mask-type:alpha" maskUnits="userSpaceOnUse" x="418" y="251" width="79" height="100">
<path d="M492.995 350.378H422.602C420.554 350.378 418.894 348.852 418.894 346.97V254.791C418.894 252.908 420.554 251.382 422.602 251.382H492.995C495.043 251.382 496.703 252.908 496.703 254.791V346.97C496.703 348.852 495.043 350.378 492.995 350.378Z" fill="#595959"/>
</mask>
<g mask="url(#mask8_18_2282)">
<path d="M450.505 257.567H431.052V251.954H450.505V257.567Z" fill="white"/>
</g>
<path d="M675.245 510.688V490.25H697.476V510.688H675.245Z" stroke="#F29326" stroke-width="1.128" stroke-miterlimit="10"/>
</g>
</svg>
